<svg height="512" viewBox="0 0 60 60" width="512" xmlns="http://www.w3.org/2000/svg"><g id="Page-1" fill="none" fill-rule="evenodd"><g id="038---Babygrow" fill="rgb(0,0,0)" fill-rule="nonzero"><path id="Shape" d="m55.623 22.845 3.622-7.968c.5755542-1.2825799.1890046-2.7926945-.932-3.641l-10.193-7.646c-.4243472-.31880233-.8969941-.56761715-1.4-.737l-7.545-2.695c-.7604035-.25944149-1.5937938-.19694625-2.307.173-2.1548526.96696157-4.4680796 1.53256015-6.826 1.669-2.3867617-.12473839-4.7297008-.69097693-6.91-1.67-.7198916-.37150646-1.5606465-.43150875-2.326-.166l-7.506 2.682c-.5104059.16968786-.9899511.42094252-1.42.744l-10.193 7.645c-1.12116486.8486465-1.50770009 2.35912-.932 3.642l3.622 7.968c.61991319 1.3471847 2.12722239 2.0438117 3.555 1.643l3.75-1.08c-.9643586 5.1259345-1.1973422 10.3626783-.692 15.554l-2.802 15.138c-.18809195 1.027354.44278231 2.0273614 1.451 2.3l13.247 3.533c.9940939.2593159 2.0238087-.2723585 2.388-1.233l4.726-13.645 4.742 13.687c.3753605.9400421 1.3938669 1.4514422 2.372 1.191l13.247-3.533c1.0083155-.2726289 1.6395039-1.2724451 1.452-2.3l-2.8-15.139c.5053831-5.188286.2727353-10.4220187-.691-15.545l3.748 1.071c1.4267875.3985079 2.9319265-.2970841 3.553-1.642zm-25.581-18.845c2.4744884-.1308582 4.9089293-.67995986 7.2-1.624.216 1.532.337 4.326-1.167 6.288-1.186 1.55-3.231 2.336-6.075 2.336s-4.889-.786-6.077-2.337c-1.5-1.962-1.383-4.756-1.167-6.289 2.3175117.9556223 4.7820857 1.50563566 7.286 1.626zm-22.66 18.565c-.47526419.1342698-.97737482-.0985192-1.182-.548l-3.625-7.968c-.19104772-.4277686-.06218829-.9307762.311-1.214l9.33-7c1.454 3.615 3.291 10.365-.316 15.607-.2559561-.0325501-.5158031-.0148873-.765.052zm2.772 31.9.445-2.4 13.519 3.865-.718 2.07zm26.462 3.579-.732-2.114 13.516-3.865.445 2.4zm12.42-7.954-13.808 3.947-3.338-9.637c-.2788075-.8055547-1.0375611-1.3458593-1.89-1.3458593s-1.6111925.5403046-1.89 1.3458593l-3.336 9.637-13.81-3.947 2.019-10.908c.0181194-.0962501.0218266-.1946595.011-.292-.5038788-5.0426666-.2843248-10.1314703.652-15.112.0709186-.3888106.0228208-.789974-.138-1.151 4.31-6.187 2.041-14 .423-17.881l.022-.009 6.791-2.427c-.244 1.89-.285 5.113 1.584 7.561 1.586 2.076 4.172 3.129 7.672 3.129s6.086-1.053 7.672-3.129c1.869-2.447 1.828-5.671 1.585-7.56l6.811 2.433c-1.618 3.885-3.888 11.7.422 17.883-.1608208.361026-.2089186.7621894-.138 1.151.9363248 4.9805297 1.1558788 10.0693334.652 15.112-.0108266.0973405-.0071194.1957499.011.292zm3.581-27.525-3.748-1.071c-.2496285-.0663408-.5096959-.0839955-.766-.052-3.611-5.242-1.773-11.992-.319-15.604l9.33 7c.3730278.2828832.5019013.7855315.311 1.213l-3.625 7.967c-.208192.4464103-.7080395.6775316-1.183.547z"/><path id="Shape" d="m37 17c-1.7502671.0029469-3.3705545.924324-4.268 2.427-1.7768376-.5693561-3.6871624-.5693561-5.464 0-1.1182418-1.8622236-3.3126954-2.7871286-5.426545-2.2871474s-3.6614274 2.3099754-3.8269209 4.4758363c-.1654936 2.1658609 1.0891201 4.1899707 3.1024659 5.0053111-.5728081 3.517675.9841164 7.0419969 3.9703325 8.9874171 2.9862162 1.9454202 6.8391188 1.9454202 9.825335 0 2.9862161-1.9454202 4.5431406-5.4697421 3.9703325-8.9874171 2.2164219-.8974497 3.4854001-3.2403329 3.0261097-5.5870314-.4592905-2.3466986-2.5178918-4.0383156-4.9091097-4.0339686zm-17 5c-.0033456-1.3039418.8378875-2.4599959 2.0796353-2.8579129s2.5982171.0538854 3.3533647 1.1169129c-1.7125057 1.0121579-3.0430081 2.5613057-3.785 4.407-1.0088959-.5059457-1.6464634-1.5373505-1.648-2.666zm10 13c-3.8659932 0-7-3.1340068-7-7s3.1340068-7 7-7 7 3.1340068 7 7c-.0044086 3.8641657-3.1358343 6.9955914-7 7zm8.352-10.334c-.7419919-1.8456943-2.0724943-3.3948421-3.785-4.407.7209196-1.01497 1.9948467-1.4776905 3.199098-1.1619881s2.0873257 1.3438951 2.217585 2.5820072c.1302593 1.2381122-.5195005 2.4275712-1.631683 2.9869809z"/><circle id="Oval" cx="27" cy="25" r="1"/><circle id="Oval" cx="33" cy="25" r="1"/><path id="Shape" d="m30 27c-1.6568542 0-3 1.3431458-3 3s1.3431458 3 3 3 3-1.3431458 3-3-1.3431458-3-3-3zm0 4c-.5522847 0-1-.4477153-1-1s.4477153-1 1-1 1 .4477153 1 1-.4477153 1-1 1z"/></g></g></svg>