<svg height="512" viewBox="0 0 60 47" width="512" xmlns="http://www.w3.org/2000/svg"><g id="Page-1" fill="none" fill-rule="evenodd"><g id="037---Baby-Shoes" fill="rgb(0,0,0)" fill-rule="nonzero"><path id="Shape" d="m59.145 24.316c-1.213-4.983-4.7-11.338-8.876-16.189-5.042-5.854-10.149-8.511-14.381-7.482-2.4871395.73890661-4.5951422 2.40547462-5.888 4.655-1.2839916-2.25553529-3.3935412-3.92446-5.884-4.655-4.225-1.026-9.341 1.626-14.385 7.479-4.18 4.854-7.663 11.208-8.873 16.189-1.3 5.341-1.122 9.885.536 13.5 1.937 4.233 5.84 7.091 11.6 8.495 1.7264809.4348056 3.4986715.6620784 5.279.677 4.6292845.1278077 9.0199796-2.0510532 11.718-5.815.7976837 1.0978388 1.7394672 2.083348 2.8 2.93 2.5382664 1.9528549 5.6693446 2.9764291 8.871 2.9 1.8003666-.0161716 3.5923706-.247138 5.338-.688 5.764-1.4 9.668-4.26 11.606-8.492 1.659-3.62 1.839-8.16.539-13.504zm-52.045 1.337c-.27000152-.8129513-.10262626-1.7076344.443-2.368.58506582-.5153696 1.4018094-.6768855 2.139-.423 1.6809419.5667265 3.1455078 1.6393909 4.193 3.071-1.7542813 1.3933547-2.3401611 3.7990441-1.423 5.843-1.5887009.7894139-3.38246573 1.0688165-5.136.8-.76949472-.114361-1.41847349-.6327805-1.7-1.358-.18137761-.8395263.08326398-1.7132216.7-2.311.83654619-.8597835 1.13718082-2.1075706.784-3.254zm18.225-.761c-1.7075524.0925092-3.3805707.5178125-4.925 1.252-1.251078-1.2001753-3.0498711-1.6368942-4.712-1.144-1.311-1.659-3.224-3.517-5.536-4.08-.072-.017-.141-.025-.213-.04.02-.093.03-.189.052-.281 1.457-5.965 8.267-15.2 12.7-14.126 1.762.435 3.263 2.55 4.247 5.947-.135.482-.264.973-.384 1.48-.836461 3.6036502-1.2495876 7.2925925-1.231 10.992zm-11.225 4.192c.3390982-1.3904834 1.6132098-2.3477906 3.0431297-2.2864634 1.4299198.0613271 2.6173886 1.1242077 2.836189 2.5386186.2188005 1.4144108-.5920074 2.7864123-1.9365599 3.2769328s-2.8483667-.037059-3.5917588-1.260088c-.4132434-.6798683-.5395009-1.4960457-.351-2.269zm6.612 4.043c.046994-.0429489.0895421-.0905224.127-.142 1.2300714-1.4338637 1.5196842-3.4498495.743-5.172 1.1965494-.5395285 2.4824432-.8534588 3.793-.926.0770979 1.8413552.3214368 3.6718887.73 5.469.254 1.04.553 2.011.878 2.945-.0821964.4904499-.3518598.9297286-.752 1.225-.5694576.3306423-1.2527027.4033667-1.879.2-1.6805192-.5691111-3.1446941-1.6425368-4.193-3.074.1989811-.1603128.385208-.3358408.557-.525zm-7.244 11.241c-5.135-1.251-8.586-3.736-10.256-7.383-1.466-3.2-1.6-7.3-.41-12.2 1.123-4.625 4.516-10.8 8.444-15.353 4.464-5.18 8.984-7.669 12.4-6.841 1.986.483 3.739 2.072 5.222 4.7-.322.646-.6253333 1.334-.91 2.064-1.194-2.684-2.82-4.34-4.791-4.826-6.144-1.492-13.6 9.369-15.118 15.6-.058.244-.093.493-.138.742-.6962429.1588557-1.3296625.5208098-1.82 1.04-1.04149941 1.1808849-1.38523773 2.8224728-.905 4.322.14201549.4542134.02073782.9497193-.315 1.287-1.11406385 1.1122361-1.56243926 2.7276783-1.181 4.255.45903474 1.4307181 1.67380878 2.4887346 3.154 2.747.5476206.1307991 1.10898482.195262 1.672.192 1.7752701-.0654389 3.5177977-.4974958 5.118-1.269.6173234.5850542 1.3750325 1.0011054 2.2 1.208.3898985.0948719.7897252.142878 1.191.143.4520133.0005263.9019326-.0613922 1.337-.184 1.3583757 1.9099924 3.2939991 3.3334923 5.522 4.061.4135107.1030794.8378427.1564566 1.264.159.7874451.0130262 1.5600246-.2151884 2.214-.654.2061494-.1431245.3962501-.3080797.567-.492.2766667.6.571 1.17.883 1.71-3.334 4.962-8.489 6.644-15.344 4.972zm43.321-7.381c-1.67 3.648-5.123 6.131-10.261 7.381s-9.344.632-12.5-1.84c-2.77-2.167-4.779-5.749-5.97-10.644-1.126-4.628-.948-11.669.445-17.522 1.578-6.652 4.444-10.943 7.857-11.774.4407956-.10584923.8926763-.15855745 1.346-.157 3.209 0 7.149 2.476 11.048 7 3.927 4.559 7.321 10.73 8.447 15.357 1.192 4.897 1.054 9.001-.412 12.199z"/><path id="Shape" d="m54.816 26.231c.48027-1.4992063.1365099-3.1405187-.905-4.321-.4853257-.5147021-1.1112902-.8753272-1.8-1.037-.047-.26-.1-.512-.159-.754-1.515-6.225-8.932-17.084-15.115-15.588-2.792.68-4.946 3.792-6.065 8.763-.9144441 3.9499911-.982604 8.0487882-.2 12.027.057.233.148.486.221.73-.5461969.4615871-.9432649 1.0747631-1.141 1.762-.3818033 1.5275062.0670438 3.1432799 1.182 4.255.3345966.3383572.4550011.8338237.313 1.288-.4793835 1.4994121-.135304 3.140436.906 4.321.7262362.7604258 1.7398347 1.178794 2.791 1.152.4288592-.002482.8558857-.056196 1.272-.16 2.2270098-.7262624 4.1617519-2.1488359 5.519-4.058.435509.1221266.8856915.1840351 1.338.184.4012748-.000122.8011015-.0481281 1.191-.143.8249675-.2068946 1.5826766-.6229458 2.2-1.208 1.6001531.7716407 3.3427097 1.2037048 5.118 1.269.5629916.0028291 1.1243043-.0616278 1.672-.192 1.4801912-.2582654 2.6949653-1.3162819 3.154-2.747.3813611-1.5253703-.0654119-3.1389915-1.177-4.251-.3370113-.3386246-.4583393-.8362621-.315-1.292zm-22.3-1.382c-.7044584-3.6791493-.6363507-7.464573.2-11.116.929-4.129 2.6-6.775 4.587-7.258 4.429-1.082 11.246 8.15 12.7 14.116.021.089.033.2.053.288-.071.014-.139.022-.21.039-2.312.563-4.225 2.421-5.536 4.08-1.6622344-.4910837-3.4601555-.0528644-4.71 1.148-1.927-.872-4.481-1.642-6.791-1.08-.072.017-.137.042-.206.061-.027-.09-.066-.19-.087-.278zm3.128 11.877c-.7372936.2547026-1.5546146.0926904-2.139-.424-.5468707-.6617687-.7139384-1.5587182-.442-2.373.3508429-1.1482363.0462802-2.3964065-.794-3.254-.6139102-.5977503-.8765634-1.4696076-.695-2.307.2812385-.7256082.9302719-1.2444531 1.7-1.359 1.7538598-.2690936 3.5480265.0103172 5.137.8-.7762878 1.7190065-.4899263 3.7317191.735 5.166.040117.056921.0867687.1089427.139.155.1686436.1881106.3515171.3629604.547.523-1.0462071 1.4311974-2.5088358 2.5044204-4.188 3.073zm8.047-4.018c-1.3907216.3379529-2.826507-.3535331-3.4293147-1.6515861-.6028078-1.298053-.2047546-2.8411622.9507337-3.6856535 1.1554884-.8444912 2.7466058-.7551717 3.800319.2133361s1.2765606 2.5464721.532262 3.7689035c-.4138343.6796789-1.0807507 1.1670962-1.854 1.355zm10.7-1.488c-.2815265.7252195-.9305053 1.243639-1.7 1.358-1.753535.2694775-3.5474995-.0099563-5.136-.8.9176859-2.0442228.3317604-4.4505115-1.423-5.844 1.0474922-1.4316091 2.5120581-2.5042735 4.193-3.071.7372053-.2536694 1.5538383-.0921754 2.139.423.5456263.6603656.7130015 1.5550487.443 2.368-.3528079 1.1498861-.0485588 2.4006454.793 3.26.6119344.5984514.8726563 1.4697917.69 2.306z"/></g></g></svg>