<?xml version="1.0" encoding="iso-8859-1"?>
<!-- Generator: Adobe Illustrator 19.0.0, SVG Export Plug-In . SVG Version: 6.00 Build 0)  -->
<svg version="1.1" id="Capa_1" xmlns="http://www.w3.org/2000/svg" xmlns:xlink="http://www.w3.org/1999/xlink" x="0px" y="0px"
	 viewBox="0 0 416.038 416.038" style="enable-background:new 0 0 416.038 416.038;" xml:space="preserve">
<g>
	<g>
		<path d="M416,133.53c-0.22-4.299-1.469-8.483-3.64-12.2c-7.58-13.14-24.375-17.652-37.52-10.08l-65.36,37.64l-37.92,21.88
			c-6.678-18.108-23.9-30.163-43.2-30.24h-42.92c-18.882,0.069-35.825,11.613-42.8,29.16l-36.4-21l-65-37.48
			c-13.145-7.572-29.94-3.06-37.52,10.08c-2.372,4.203-3.651,8.934-3.72,13.76v145.84c0.016,15.265,12.404,27.627,27.669,27.611
			c5.574-0.006,11.015-1.697,15.611-4.851l64.4-37.16l35.08-20.24c6.955,17.592,23.923,29.174,42.84,29.24h42.72
			c19.325-0.066,36.57-12.143,43.24-30.28l37.8,21.8l63.32,36.52c12.571,8.66,29.782,5.49,38.442-7.081
			c3.154-4.578,4.853-10,4.878-15.558V135.05C416.05,134.545,416.05,134.035,416,133.53z M100,253.37l-64.72,37.28l-0.76,0.48
			c-5.733,3.866-13.514,2.353-17.38-3.38c-1.376-2.04-2.12-4.44-2.14-6.9V136.01c0-6.56,2-11.12,9.2-13.08
			c2.984-0.817,6.166-0.489,8.92,0.92c0.343,0.23,0.704,0.43,1.08,0.6l64.44,37.16l40.72,23.48v0.32v44.04l0.04,0.24L100,253.37z
			 M259.16,229.45c-0.283,16.849-13.989,30.377-30.84,30.44h-42.88c-16.851-0.063-30.557-13.591-30.84-30.44v-42.88
			c0.283-16.849,13.989-30.377,30.84-30.44h42.88c16.943,0.065,30.687,13.737,30.84,30.68V229.45z M400.96,280.89
			c0,6.87-5.57,12.44-12.44,12.44c-1.355,0.03-2.705-0.159-4-0.56c-1.215-0.395-2.362-0.975-3.4-1.72l-0.6-0.4l-63.76-36.8
			l-42.4-24.52v-42.76l42.64-24.6l64.72-37.36c0.376-0.17,0.737-0.371,1.08-0.6c5.666-2.832,12.554-0.955,16,4.36
			c0.163,0.333,0.35,0.654,0.56,0.96c0.971,2.148,1.462,4.483,1.44,6.84l0.16,71.84V280.89z"/>
	</g>
</g>
<g>
</g>
<g>
</g>
<g>
</g>
<g>
</g>
<g>
</g>
<g>
</g>
<g>
</g>
<g>
</g>
<g>
</g>
<g>
</g>
<g>
</g>
<g>
</g>
<g>
</g>
<g>
</g>
<g>
</g>
</svg>
