<svg id="Layer_5" enable-background="new 0 0 64 64" height="512" viewBox="0 0 64 64" width="512" xmlns="http://www.w3.org/2000/svg"><g><path d="m18 14.181v.819h2c1.103 0 2-.897 2-2h-3.557z"/><path d="m21 28c0 .34-.033.672-.08 1h20.16c-.047-.328-.08-.66-.08-1s.033-.672.08-1h-20.16c.047.328.08.66.08 1z"/><path d="m19.963 8.947-.77 2.053h2.807c1.103 0 2 .897 2 2h8v-6h-9.228c-1.244 0-2.372.782-2.809 1.947z"/><path d="m34 25h7.685c1.126-2.361 3.53-4 6.315-4 .34 0 .672.033 1 .08v-6.08h-15z"/><path d="m44.228 7h-10.228v6h14.557l-1.52-4.053c-.437-1.165-1.565-1.947-2.809-1.947z"/><circle cx="48" cy="28" r="1"/><circle cx="14" cy="28" r="1"/><path d="m3.184 27c.414 1.161 1.514 2 2.816 2h1.08c-.047-.328-.08-.66-.08-1s.033-.672.08-1z"/><path d="m14 23c-2.757 0-5 2.243-5 5s2.243 5 5 5 5-2.243 5-5-2.243-5-5-5zm0 8c-1.654 0-3-1.346-3-3s1.346-3 3-3 3 1.346 3 3-1.346 3-3 3z"/><path d="m18 22.264c.991.693 1.79 1.636 2.315 2.736h11.685v-10h-8.556c-.694 1.19-1.97 2-3.444 2h-2z"/><path d="m58.477 44.65c-.179-.559-.416-1.125-.704-1.684l-.254-.493 1.246-2.095-3.143-3.143-2.095 1.246-.493-.254c-.558-.288-1.124-.525-1.683-.704l-.528-.169-.6-2.354h-4.445l-.599 2.354-.528.169c-.56.179-1.125.416-1.683.704l-.493.254-2.095-1.246-3.143 3.143 1.246 2.095-.254.493c-.288.559-.525 1.125-.704 1.684l-.169.528-2.356.599v4.445l2.354.599.169.528c.179.56.416 1.125.704 1.683l.254.493-1.246 2.095 3.143 3.143 2.095-1.246.493.254c.558.288 1.124.525 1.683.704l.528.169.6 2.356h4.445l.599-2.354.528-.169c.56-.179 1.125-.416 1.683-.704l.493-.254 2.095 1.246 3.143-3.143-1.246-2.095.254-.493c.288-.558.525-1.124.704-1.683l.169-.528 2.356-.6v-4.445l-2.354-.599zm-10.477 12.35c-4.962 0-9-4.038-9-9s4.038-9 9-9 9 4.038 9 9-4.038 9-9 9z"/><path d="m5 18c0-1.008-.504-1.92-1.316-2.471-.429.52-.684 1.181-.684 1.903v3.384c1.161-.414 2-1.514 2-2.816z"/><path d="m48 41c-3.86 0-7 3.14-7 7s3.14 7 7 7 7-3.14 7-7-3.14-7-7-7zm0 12c-2.757 0-5-2.243-5-5s2.243-5 5-5 5 2.243 5 5-2.243 5-5 5z"/><path d="m58 29c1.302 0 2.402-.839 2.816-2h-5.896c.047.328.08.66.08 1s-.033.672-.08 1z"/><circle cx="48" cy="48" r="3"/><path d="m55 18c0-1.735.89-3.263 2.235-4.16l-3.974-.993-2.178-5.447c-1.069-2.673-3.62-4.4-6.499-4.4h-22.167c-2.879 0-5.431 1.727-6.5 4.4l-2.191 5.477-8.144 1.582c-.019.003-.036.01-.055.013.922.919 1.473 2.171 1.473 3.528 0 2.414-1.721 4.434-4 4.899v2.101h4.685c1.126-2.361 3.53-4 6.315-4 .695 0 1.366.105 2 .295v-7.476l2.09-5.574c.728-1.941 2.609-3.245 4.682-3.245h21.456c2.073 0 3.954 1.304 4.682 3.245l2.09 5.574v7.866c1.45.692 2.623 1.865 3.315 3.315h6.685v-2.115c-.328.069-.661.115-1 .115-2.757 0-5-2.243-5-5z"/><path d="m60.123 15.013c-.041-.004-.081-.013-.123-.013-1.654 0-3 1.346-3 3s1.346 3 3 3c.341 0 .674-.084 1-.207v-3.67c0-.816-.333-1.563-.877-2.11z"/><path d="m43 28c0 2.757 2.243 5 5 5s5-2.243 5-5-2.243-5-5-5-5 2.243-5 5zm8 0c0 1.654-1.346 3-3 3s-3-1.346-3-3 1.346-3 3-3 3 1.346 3 3z"/><path d="m10 40c-2.959 0-5.616 1.611-7 4v1h6c.552 0 1 .448 1 1v4c0 .552-.448 1-1 1h-6v1c1.384 2.389 4.041 4 7 4 3.357 0 6.226-2.069 7.413-5h15.587v-6h-15.587c-1.187-2.931-4.056-5-7.413-5z"/></g></svg>