<?xml version="1.0" encoding="utf-8"?>
<!-- Svg Vector Icons : http://www.onlinewebfonts.com/icon -->
<!DOCTYPE svg PUBLIC "-//W3C//DTD SVG 1.1//EN" "http://www.w3.org/Graphics/SVG/1.1/DTD/svg11.dtd">
<svg version="1.1" xmlns="http://www.w3.org/2000/svg" xmlns:xlink="http://www.w3.org/1999/xlink" x="0px" y="0px" viewBox="0 0 1000 1000" enable-background="new 0 0 1000 1000" xml:space="preserve">
<metadata> Svg Vector Icons : http://www.onlinewebfonts.com/icon </metadata>
<g><g transform="translate(0.000000,512.000000) scale(0.100000,-0.100000)"><path d="M1920.8,4985.5c-105.3-51.7-134-130.2-134-371.4v-206.7h918.9h918.9v206.7c0,237.4-26.8,314-135.9,371.4c-59.4,30.6-124.4,34.5-783,34.5C2060.5,5020,1980.1,5016.2,1920.8,4985.5z"/><path d="M7195,4686.9c-70.8-32.5-153.2-118.7-180-189.5c-13.4-32.5-21-241.2-21-532.2v-476.7h-181.9c-208.7,0-283.3-23-359.9-112.9c-59.4-70.8-80.4-164.6-61.3-264.2c17.2-91.9,135.9-208.7,229.7-227.8l67-11.5v-348.4c0-314,5.7-358,46-472.9c97.6-279.5,403.9-639.4,716-840.4l157-101.5V-719.4c0-1985.3-3.8-2052.3-107.2-2372c-86.2-266.1-191.4-436.5-381-629.8c-153.2-155.1-197.2-187.6-373.3-271.9c-340.8-164.6-323.5-162.7-1225.2-172.3c-538-3.8-853.8,0-976.4,15.3c-612.6,76.6-1062.5,396.3-1319,940c-42.1,88.1-82.3,183.8-90,214.4L3123-2944h446.1c315.9,0,486.2,9.6,578.1,28.7c344.6,72.8,601.1,331.2,675.8,677.7c40.2,187.6,40.2,5444.6,0,5632.2c-74.7,346.5-331.2,605-675.8,677.7c-191.4,40.2-2691.7,40.2-2883.1,0c-344.6-72.7-601.1-331.2-675.8-677.7c-40.2-187.6-40.2-5444.6,0-5632.2c68.9-319.7,296.7-568.6,614.5-670c51.7-15.3,277.6-26.8,675.8-34.5l599.2-11.5l65.1-199.1c210.6-622.2,608.8-1102.7,1135.2-1368.8c176.1-88.1,426.9-172.3,635.6-214.4c212.5-40.2,1690.4-61.3,1966.1-26.8c268,32.5,509.2,105.3,742.8,218.2c696.9,342.7,1091.2,964.9,1177.4,1860.8c11.5,126.4,19.1,909.4,19.1,2000.6v1791.9l158.9,101.5c289.1,187.6,585.8,522.6,698.8,792.6c47.9,109.1,49.8,139.8,57.4,493.9l7.7,375.2l65.1,13.4c91.9,17.2,210.6,134,227.8,225.9c19.1,97.6-1.9,193.3-57.4,260.4c-78.5,91.9-157,116.8-361.8,116.8h-183.8v476.7c0,291-7.7,499.7-21,532.2c-28.7,76.6-128.3,174.2-202.9,199.1c-91.9,28.7-185.7,7.7-268-65.1c-114.9-101.5-120.6-130.2-120.6-664.3v-478.6h-306.3h-306.3v476.7c0,291-7.7,499.7-21.1,532.2c-42.1,112.9-183.8,218.2-289.1,216.3C7271.6,4711.8,7227.6,4700.3,7195,4686.9z M4072.6,3442.5c44-24.9,97.6-80.4,122.5-122.5l42.1-76.6V578.6v-2664.9l-42.1-76.6c-24.9-42.1-78.5-97.6-122.5-122.5l-78.5-46H2705.7H1417.3l-78.5,46c-44,24.9-97.6,80.4-122.5,122.5l-42.1,76.6V580.5v2668.7l46,74.7c24.9,40.2,78.5,93.8,118.7,118.7l74.7,45.9h1290.3h1290.3L4072.6,3442.5z"/><path d="M1480.5,1650.6V1038h1225.2h1225.2v612.6v612.6H2705.7H1480.5V1650.6z"/><path d="M1480.5,119.1v-612.6h1225.2h1225.2v612.6v612.6H2705.7H1480.5V119.1z"/><path d="M1480.5-1412.4V-2025h1225.2h1225.2v612.6v612.6H2705.7H1480.5V-1412.4z"/></g></g>
</svg>