<?xml version="1.0"?>
<svg xmlns="http://www.w3.org/2000/svg" width="512" height="512" viewBox="0 0 128 128"><g><path d="M86.75,85.875A1.749,1.749,0,0,0,85,87.625v7a1.75,1.75,0,0,0,3.5,0v-7A1.749,1.749,0,0,0,86.75,85.875Z"/><path d="M95.75,113.75H94.5V54.96a1.752,1.752,0,0,0-.353-1.054A34.885,34.885,0,0,1,87.16,33.04V6.5a1.749,1.749,0,0,0-1.75-1.75h-6A1.749,1.749,0,0,0,77.66,6.5V30.36H50.34V6.5a1.749,1.749,0,0,0-1.75-1.75h-6A1.749,1.749,0,0,0,40.84,6.5V33.04a34.885,34.885,0,0,1-6.987,20.866A1.752,1.752,0,0,0,33.5,54.96v58.79H32.25a1.749,1.749,0,0,0-1.75,1.75v6a1.749,1.749,0,0,0,1.75,1.75H57.463a1.749,1.749,0,0,0,1.75-1.75v-6a1.749,1.749,0,0,0-1.75-1.75H57.39L64,92.277l6.61,21.473h-.073a1.749,1.749,0,0,0-1.75,1.75v6a1.749,1.749,0,0,0,1.75,1.75H95.75a1.749,1.749,0,0,0,1.75-1.75v-6A1.749,1.749,0,0,0,95.75,113.75ZM81.16,8.25h2.5V30.36h-2.5Zm-34.32,0V30.36h-2.5V8.25Zm8.873,111.5H34v-2.5H55.713Zm9.96-33.935a1.751,1.751,0,0,0-3.346,0l-8.6,27.935H37V55.538A38.436,38.436,0,0,0,44.331,33.86H83.669A38.436,38.436,0,0,0,91,55.538V113.75H74.273ZM94,119.75H72.287v-2.5H94Z"/><path d="M78.4,53.4H49.6a1.75,1.75,0,0,0-1.75,1.75V66.846A7.759,7.759,0,0,0,55.6,74.6H72.4a7.759,7.759,0,0,0,7.75-7.75V55.154A1.75,1.75,0,0,0,78.4,53.4ZM76.65,66.846A4.255,4.255,0,0,1,72.4,71.1H55.6a4.255,4.255,0,0,1-4.25-4.25V56.9h25.3Z"/></g></svg>
