<svg xmlns="http://www.w3.org/2000/svg" xmlns:xlink="http://www.w3.org/1999/xlink" width="128" height="128" preserveAspectRatio="xMidYMid meet" viewBox="0 0 128 128" style="-ms-transform: rotate(360deg); -webkit-transform: rotate(360deg); transform: rotate(360deg);"><path fill="#BDBDBD" d="M54.66 49.02h19.02v46.27H54.66z"/><path d="M70.12 52.57v39.17H58.21V52.57h11.91m3.56-3.55H54.66V95.3h19.02V49.02z" fill="#424242" opacity=".2"/><path d="M42.84 98.6a8.03 8.03 0 0 1 8.03-8.03h26.6a8.03 8.03 0 0 1 8.03 8.03c0 .77-.63 1.4-1.4 1.4H44.24c-.77 0-1.4-.63-1.4-1.4z" fill="#BDBDBD"/><path d="M77.47 92.94c2.79 0 5.11 2.03 5.57 4.69H45.29a5.662 5.662 0 0 1 5.57-4.69h26.61m0-2.37h-26.6a8.03 8.03 0 0 0-8.03 8.03c0 .77.63 1.4 1.4 1.4h39.84c.77 0 1.4-.63 1.4-1.4a8.013 8.013 0 0 0-8.01-8.03z" fill="#424242" opacity=".2"/><linearGradient id="IconifyId-17253a84297-465356-1274" x1="64.167" x2="64.167" y1="8.027" y2="80.6" gradientUnits="userSpaceOnUse"><stop stop-color="#eee" offset=".004"/><stop stop-color="#BDBDBD" offset="1"/></linearGradient><path d="M111.99 81.06H16.34c-4.4 0-7.96-3.56-7.96-7.96V15.8c0-4.4 3.56-7.96 7.96-7.96h95.65c4.4 0 7.96 3.56 7.96 7.96v57.3c0 4.4-3.56 7.96-7.96 7.96z" fill="url(#IconifyId-17253a84297-465356-1274)"/><path d="M111.99 11.39c2.43 0 4.41 1.98 4.41 4.41v57.3c0 2.43-1.98 4.41-4.41 4.41H16.34c-2.43 0-4.41-1.98-4.41-4.41V15.8c0-2.43 1.98-4.41 4.41-4.41h95.65m0-3.55H16.34c-4.4 0-7.96 3.56-7.96 7.96v57.3c0 4.4 3.56 7.96 7.96 7.96h95.65c4.4 0 7.96-3.56 7.96-7.96V15.8c0-4.4-3.56-7.96-7.96-7.96z" fill="#424242" opacity=".2"/><path d="M108.3 68.24H19.96c-1.65 0-2.99-1.34-2.99-2.99V19.48c0-1.65 1.34-2.99 2.99-2.99h88.35c1.65 0 2.99 1.34 2.99 2.99v45.77a2.994 2.994 0 0 1-3 2.99z" fill="#757575"/><linearGradient id="IconifyId-17253a84297-465356-1275" x1="64.167" x2="64.167" y1="-27.411" y2="-14.092" gradientTransform="matrix(1 0 0 -1 0 89.343)" gradientUnits="userSpaceOnUse"><stop stop-color="#9E9E9E" offset="0"/><stop stop-color="#E0E0E0" offset="1"/></linearGradient><path d="M97.01 103.35H31.26c-.93 0-1.79.49-2.26 1.3l-7.13 12.14h84.6l-7.21-12.15c-.47-.8-1.33-1.29-2.25-1.29z" fill="url(#IconifyId-17253a84297-465356-1275)"/><path d="M97.01 104.76c.43 0 .83.23 1.04.59l5.94 10.02H24.33l5.88-10.02c.22-.37.62-.6 1.05-.6h65.75m0-1.4H31.26c-.93 0-1.79.49-2.26 1.3l-7.13 12.14h84.6l-7.21-12.15c-.47-.8-1.33-1.29-2.25-1.29z" fill="#424242" opacity=".2"/><g fill="#F5F5F5"><path d="M37.91 107.74h-4.55l.62-1.18h4.56z"/><path d="M45.02 107.74h-4.55l.57-1.18h4.67z"/><path d="M51.79 107.74h-4.55l.66-1.18h4.54z"/><path d="M58.52 107.74h-4.54l.73-1.18h4.25z"/><path d="M65.16 107.74h-4.55l.36-1.18h3.81z"/><path d="M71.93 107.74h-4.55l-.5-1.18h4.3z"/><path d="M78.88 107.74h-4.55l-.86-1.18h4.55z"/><path d="M85.57 107.74h-4.54l-.81-1.18h4.55z"/><path d="M94.68 107.74h-6.83l-.87-1.18h7.03z"/><path d="M91.2 109.52h4.54l-.8-1.19h-4.62z"/><path d="M83.76 109.52h4.55l-.87-1.19H82.9z"/><path d="M76.98 109.52h4.55l-.77-1.19h-4.54z"/><path d="M69.69 109.52h4.55l-.81-1.19h-4.29z"/><path d="M63.19 109.52h4.54l-.5-1.19H63.4z"/><path d="M56.68 109.52h4.55l.27-1.19h-4.41z"/><path d="M49.56 109.52h4.54l.55-1.19h-4.36z"/><path d="M41.64 109.52h4.54l.71-1.19h-4.55z"/><path d="M32.37 109.52h6.83l.67-1.19h-6.85z"/><path d="M75.43 111.29h4.54l-.78-1.18h-4.55z"/><path d="M68.18 111.29h4.55l-.67-1.18H67.8z"/><path d="M59.64 111.29h4.55l-.13-1.18H60z"/><path d="M51.51 111.29h4.55l.41-1.18h-4.36z"/><path d="M42.95 111.29h4.55l.72-1.18h-4.55z"/><path d="M31.49 111.29h9.07l.74-1.18h-9.15z"/><path d="M83.1 111.31h13.62l-.81-1.23H82.29z"/><path d="M93.45 113.06h4.53l-.9-1.18h-4.55z"/><path d="M84.96 113.06h4.55l-.89-1.18h-4.55z"/><path d="M48.73 113.06h30.88l-.71-1.18H49.43z"/><path d="M39.03 113.06h4.55l.56-1.18h-4.45z"/><path d="M30.35 113.06h4.55l.54-1.18H31z"/></g><path d="M104.96 119.56H23.37c-.83 0-1.51-.67-1.51-1.51v-1.27h84.6v1.27c.01.84-.67 1.51-1.5 1.51z" fill="#9E9E9E"/><path d="M105.76 117.49v.56c0 .44-.36.8-.8.8H23.37c-.44 0-.8-.36-.8-.8v-.56h83.19m.71-.7h-84.6v1.27c0 .83.67 1.51 1.51 1.51h81.59c.83 0 1.51-.67 1.51-1.51v-1.27h-.01z" fill="#424242" opacity=".2"/><rect x="0" y="0" width="128" height="128" fill="rgba(0, 0, 0, 0)" /></svg>