<svg id="svg" version="1.1" xmlns="http://www.w3.org/2000/svg" xmlns:xlink="http://www.w3.org/1999/xlink" width="400" height="229.4010889292196" viewBox="0, 0, 400,229.4010889292196"><g id="svgg"><path id="path0" d="M198.967 46.558 C 188.392 50.165,184.306 65.975,191.250 76.420 C 193.392 79.642,197.413 82.846,199.314 82.846 C 199.519 82.846,199.885 82.952,200.127 83.082 C 201.313 83.717,207.319 83.215,208.491 82.383 C 208.617 82.294,209.005 82.153,209.352 82.070 C 209.699 81.987,209.983 81.818,209.983 81.694 C 209.983 81.570,210.147 81.469,210.348 81.469 C 210.867 81.469,214.832 77.402,215.378 76.309 C 215.629 75.806,215.964 75.256,216.122 75.088 C 216.279 74.919,216.408 74.582,216.408 74.338 C 216.408 74.095,216.495 73.896,216.601 73.896 C 216.706 73.896,216.979 73.302,217.207 72.576 C 217.434 71.850,217.711 71.050,217.822 70.797 C 218.519 69.214,218.793 62.618,218.292 59.482 C 217.977 57.507,217.113 54.841,216.643 54.389 C 216.577 54.326,216.316 53.852,216.062 53.335 C 214.710 50.585,211.796 48.047,208.609 46.843 C 206.525 46.056,200.925 45.891,198.967 46.558 M173.035 46.945 C 167.526 47.913,164.443 49.374,161.468 52.430 C 159.903 54.039,157.889 57.330,157.889 58.281 C 157.889 58.416,157.790 58.705,157.669 58.925 C 156.463 61.110,156.483 68.436,157.705 71.715 C 159.558 76.691,164.824 81.400,169.305 82.089 C 169.779 82.161,170.272 82.303,170.401 82.403 C 170.665 82.609,176.155 83.191,177.395 83.146 C 182.416 82.961,186.165 82.336,186.286 81.663 C 186.317 81.493,186.449 79.702,186.580 77.682 C 186.949 71.983,187.221 68.571,187.369 67.780 C 187.629 66.397,187.354 66.322,182.026 66.326 C 176.307 66.330,176.615 66.197,176.933 68.523 C 177.247 70.820,177.627 75.347,177.515 75.459 C 177.429 75.545,176.448 75.256,174.756 74.647 C 172.496 73.833,171.658 72.404,171.658 69.365 C 171.658 64.407,175.728 61.676,182.292 62.231 C 185.047 62.464,184.742 62.834,184.500 59.551 C 183.579 47.033,183.649 47.424,182.290 47.188 C 181.208 47.000,173.825 46.807,173.035 46.945 M250.143 47.275 L 248.422 47.390 248.355 48.422 C 248.319 48.990,248.392 51.159,248.519 53.242 C 248.898 59.464,249.449 71.129,249.630 76.764 L 249.799 82.042 260.354 82.042 L 270.908 82.042 271.094 80.780 C 271.197 80.086,271.491 78.448,271.747 77.140 C 272.349 74.072,272.460 74.165,268.791 74.659 C 267.181 74.876,265.362 75.051,264.749 75.048 L 263.634 75.043 263.782 69.478 C 263.862 66.417,264.023 63.087,264.139 62.077 C 264.516 58.778,264.843 47.668,264.570 47.396 C 264.390 47.217,252.514 47.117,250.143 47.275 M225.975 47.590 C 225.909 47.763,225.787 48.408,225.705 49.024 C 225.624 49.640,225.416 50.918,225.244 51.865 C 225.072 52.811,224.878 53.896,224.813 54.274 C 224.747 54.653,224.533 55.737,224.336 56.684 C 224.140 57.631,223.869 59.128,223.734 60.011 C 223.599 60.895,223.400 61.824,223.291 62.077 C 223.182 62.329,222.989 63.104,222.861 63.798 C 222.734 64.492,222.524 65.473,222.396 65.978 C 222.175 66.843,221.795 68.475,221.139 71.371 C 220.981 72.065,220.792 72.788,220.717 72.978 C 220.642 73.167,220.464 73.890,220.321 74.584 C 220.178 75.278,219.971 76.208,219.862 76.649 C 219.218 79.250,218.874 80.753,218.770 81.417 L 218.652 82.169 222.402 82.106 L 226.151 82.042 226.357 81.354 C 226.949 79.373,226.939 79.375,227.786 81.050 C 228.772 83.000,228.821 83.022,230.123 82.129 C 234.359 79.221,234.027 79.337,234.236 80.694 C 234.311 81.183,234.474 81.713,234.598 81.870 C 234.926 82.288,247.584 82.285,247.744 81.868 C 247.860 81.568,247.696 80.639,247.049 77.912 C 246.839 77.028,246.568 75.789,246.447 75.158 C 246.325 74.527,246.136 73.804,246.025 73.551 C 245.914 73.299,245.701 72.473,245.551 71.715 C 245.269 70.289,245.165 69.824,244.526 67.126 C 244.037 65.058,243.556 62.920,243.160 61.044 C 242.987 60.224,242.675 58.830,242.467 57.946 C 242.014 56.027,241.712 54.527,241.402 52.668 C 241.276 51.910,241.082 51.084,240.971 50.832 C 240.860 50.579,240.706 49.829,240.629 49.165 C 240.389 47.098,241.086 47.275,233.161 47.275 C 227.385 47.275,226.074 47.332,225.975 47.590 M204.966 63.011 C 208.299 64.735,206.281 75.119,202.846 73.922 C 199.699 72.825,199.082 64.088,202.065 62.868 C 202.822 62.558,204.223 62.627,204.966 63.011 M231.535 71.230 C 232.641 74.176,232.598 73.896,231.945 73.896 C 231.655 73.896,231.319 73.987,231.199 74.099 C 230.759 74.510,228.305 74.551,228.468 74.145 C 228.584 73.856,229.463 71.338,230.309 68.871 C 230.466 68.411,230.502 68.479,231.535 71.230 " stroke="none" fill="#0e90c0" fill-rule="evenodd"></path><path id="path1" d="M131.503 48.038 C 131.509 48.576,131.886 55.473,132.064 58.290 C 132.124 59.237,132.279 63.471,132.409 67.699 C 132.750 78.789,132.905 81.560,133.194 81.747 C 133.836 82.162,153.030 81.954,153.160 81.530 C 153.386 80.794,154.675 74.736,154.617 74.679 C 154.586 74.649,153.335 74.774,151.835 74.958 C 150.336 75.142,148.426 75.262,147.590 75.225 L 146.070 75.158 146.129 73.437 C 146.215 70.932,146.085 71.051,148.543 71.223 C 149.707 71.304,151.131 71.434,151.707 71.511 L 152.754 71.651 153.376 68.470 C 153.718 66.721,153.995 65.212,153.993 65.118 C 153.990 65.023,152.332 64.945,150.308 64.945 C 146.100 64.945,146.247 65.024,146.561 62.935 L 146.758 61.618 147.791 61.623 C 148.359 61.625,150.020 61.709,151.482 61.809 L 154.140 61.991 154.428 58.362 C 154.834 53.257,155.078 48.106,154.922 47.924 C 154.850 47.839,149.550 47.718,143.144 47.655 L 131.497 47.540 131.503 48.038 " stroke="none" fill="#b85d0d" fill-rule="evenodd"></path><path id="path2" d="M92.943 3.132 C 92.754 3.195,92.392 3.333,92.140 3.438 C 91.888 3.544,91.526 3.691,91.337 3.764 C 90.351 4.148,89.376 5.043,89.149 5.772 C 89.057 6.068,88.763 6.621,88.495 6.999 L 88.009 7.688 88.091 114.515 C 88.138 177.120,88.257 221.374,88.377 221.419 C 88.490 221.461,88.586 221.874,88.590 222.337 C 88.594 222.800,88.749 223.379,88.934 223.624 C 89.120 223.869,89.271 224.291,89.271 224.561 C 89.271 225.138,90.340 226.156,91.796 226.965 L 92.828 227.539 145.372 227.599 C 179.639 227.638,197.996 227.737,198.144 227.885 C 198.441 228.183,307.205 228.200,307.389 227.903 C 307.460 227.788,307.919 227.626,308.409 227.543 C 308.898 227.460,309.513 227.193,309.775 226.949 C 310.036 226.705,310.358 226.506,310.490 226.506 C 310.621 226.506,310.729 226.369,310.729 226.202 C 310.729 226.034,310.983 225.659,311.293 225.367 C 311.669 225.014,311.903 224.484,311.993 223.778 C 312.068 223.196,312.227 222.540,312.347 222.321 C 312.630 221.803,312.645 9.409,312.362 9.409 C 312.250 9.409,312.115 8.719,312.061 7.875 C 312.004 6.971,311.851 6.303,311.690 6.249 C 311.540 6.199,311.417 6.025,311.417 5.862 C 311.417 5.372,309.408 3.672,308.829 3.672 C 308.536 3.672,308.167 3.543,308.009 3.385 C 307.723 3.099,93.803 2.848,92.943 3.132 M307.172 4.898 L 309.696 5.164 309.770 6.078 C 309.811 6.582,309.961 7.065,310.103 7.153 C 310.245 7.241,310.404 7.991,310.457 8.820 C 310.509 9.649,310.644 10.327,310.755 10.327 C 310.872 10.327,310.958 54.996,310.958 116.007 C 310.958 175.888,310.871 221.687,310.758 221.687 C 310.648 221.687,310.489 222.211,310.404 222.852 C 310.234 224.131,309.364 225.232,308.314 225.495 C 308.001 225.574,307.745 225.730,307.745 225.842 C 307.745 225.955,307.487 226.047,307.172 226.047 C 306.856 226.047,306.598 226.150,306.598 226.277 C 306.598 226.429,288.889 226.506,253.930 226.506 C 218.971 226.506,201.262 226.429,201.262 226.277 C 201.262 226.140,200.382 226.047,199.082 226.047 C 197.797 226.047,196.902 225.954,196.902 225.820 C 196.902 225.671,179.011 225.572,144.932 225.533 C 96.127 225.477,92.945 225.449,92.666 225.079 C 92.503 224.863,91.998 224.646,91.545 224.598 C 91.091 224.551,90.600 224.438,90.454 224.348 C 90.255 224.225,90.189 210.795,90.189 170.268 C 90.189 134.476,90.112 116.351,89.960 116.351 C 89.807 116.351,89.730 98.221,89.730 62.421 C 89.730 28.268,89.811 8.491,89.950 8.491 C 90.070 8.491,90.200 7.742,90.237 6.827 L 90.304 5.164 92.484 4.912 C 95.680 4.543,303.668 4.530,307.172 4.898 M108.647 74.398 C 107.011 75.662,106.895 77.057,108.320 78.344 L 109.238 79.174 114.816 79.174 C 120.865 79.174,120.995 79.199,121.271 80.436 C 121.355 80.815,121.518 81.538,121.631 82.042 C 121.745 82.547,121.984 83.683,122.163 84.567 C 122.639 86.915,123.407 90.658,123.577 91.452 C 123.883 92.886,124.396 95.634,124.605 96.959 C 124.823 98.348,125.299 101.078,125.767 103.614 C 126.147 105.676,127.147 111.563,127.736 115.204 C 127.930 116.403,128.177 117.849,128.285 118.417 C 128.392 118.985,128.637 120.430,128.830 121.629 C 129.165 123.721,129.607 126.284,130.097 128.973 C 130.450 130.911,131.499 136.903,131.845 138.956 C 132.138 140.698,132.578 143.226,133.930 150.946 C 134.844 156.169,135.169 158.118,135.365 159.557 C 135.569 161.060,136.092 161.889,137.242 162.534 C 138.024 162.972,138.780 162.978,180.608 162.884 C 204.022 162.831,229.581 162.851,237.407 162.928 L 251.635 163.068 253.229 163.698 C 262.133 167.216,261.210 178.218,251.809 180.622 C 250.112 181.056,248.725 181.067,194.050 181.067 C 139.992 181.067,138.003 181.082,137.231 181.492 C 135.218 182.560,135.071 184.844,136.934 186.116 L 137.775 186.690 194.246 186.690 L 250.717 186.690 252.783 186.152 C 259.641 184.366,264.586 179.926,265.994 174.291 C 268.059 166.030,258.743 157.217,247.930 157.202 C 247.336 157.201,246.934 157.082,246.859 156.884 C 246.743 156.584,248.440 152.638,252.091 144.712 C 252.552 143.713,253.502 141.596,254.204 140.008 C 254.906 138.419,255.828 136.364,256.254 135.439 C 256.680 134.515,257.028 133.722,257.028 133.677 C 257.028 133.632,257.482 132.632,258.037 131.456 C 259.014 129.386,261.007 124.976,262.996 120.482 C 263.527 119.283,264.269 117.631,264.645 116.810 C 265.021 115.990,265.517 114.905,265.747 114.400 C 270.073 104.910,271.216 102.391,272.516 99.484 C 273.363 97.590,274.355 95.437,274.721 94.698 C 275.815 92.492,275.619 91.112,274.074 90.158 L 273.214 89.626 204.364 89.674 C 166.496 89.700,134.326 89.646,132.874 89.554 L 130.235 89.386 129.945 88.239 C 129.636 87.019,128.198 80.292,127.712 77.797 C 127.335 75.858,127.088 75.281,126.340 74.584 L 125.724 74.010 117.522 73.945 L 109.320 73.879 108.647 74.398 M256.741 95.154 C 265.948 95.300,266.667 95.340,266.667 95.709 C 266.667 96.074,265.368 99.060,260.984 108.778 C 260.101 110.734,258.479 114.349,257.379 116.810 C 255.653 120.672,254.802 122.549,252.436 127.711 C 251.050 130.736,247.390 138.885,247.390 138.946 C 247.390 138.986,246.938 139.985,246.387 141.167 C 245.836 142.349,244.994 144.194,244.517 145.267 C 244.040 146.340,243.269 148.044,242.802 149.053 C 242.336 150.063,241.354 152.211,240.620 153.827 C 239.885 155.442,239.098 156.864,238.870 156.986 C 238.186 157.352,142.612 157.161,142.243 156.793 C 141.980 156.529,141.669 154.954,140.582 148.365 C 140.394 147.229,140.129 145.680,139.991 144.923 C 139.854 144.165,139.596 142.719,139.418 141.710 C 139.241 140.700,138.820 138.325,138.484 136.431 C 138.148 134.538,137.823 132.679,137.762 132.301 C 137.701 131.922,137.448 130.476,137.200 129.088 C 136.952 127.699,136.695 126.202,136.629 125.760 C 136.499 124.882,135.980 121.950,135.635 120.138 C 135.514 119.507,135.252 118.009,135.051 116.810 C 134.851 115.611,134.596 114.269,134.485 113.827 C 134.373 113.385,134.116 111.991,133.913 110.729 C 133.710 109.466,133.449 107.917,133.333 107.286 C 133.216 106.655,132.960 105.158,132.762 103.959 C 132.565 102.760,132.308 101.314,132.190 100.746 C 131.934 99.504,131.452 96.452,131.412 95.812 C 131.384 95.372,131.562 95.348,135.743 95.235 C 142.649 95.048,245.745 94.979,256.741 95.154 M156.366 109.205 C 154.812 110.182,154.905 109.084,154.905 126.334 C 154.905 143.555,154.819 142.552,156.366 143.286 C 157.902 144.015,159.818 143.737,160.929 142.623 L 161.561 141.991 161.561 126.299 L 161.561 110.607 160.787 109.763 C 159.803 108.690,157.624 108.415,156.366 109.205 M179.097 109.104 C 178.708 109.274,178.165 109.697,177.892 110.044 L 177.395 110.676 177.395 126.338 L 177.395 141.999 178.125 142.712 C 179.448 144.006,181.938 144.012,183.267 142.723 L 184.050 141.964 184.050 126.382 C 184.050 110.808,184.050 110.799,183.557 110.107 C 182.681 108.876,180.663 108.423,179.097 109.104 M201.790 109.151 C 200.144 109.962,200.237 108.998,200.164 126.104 C 200.101 140.923,200.114 141.506,200.538 142.187 C 201.595 143.884,204.488 144.175,205.974 142.735 L 206.770 141.964 206.770 126.205 L 206.770 110.447 206.139 109.815 C 205.037 108.711,203.238 108.436,201.790 109.151 M224.766 109.000 C 224.503 109.107,224.013 109.521,223.676 109.921 L 223.064 110.649 223.064 126.229 L 223.064 141.808 223.765 142.608 C 224.998 144.011,227.566 144.024,228.957 142.633 L 229.719 141.870 229.719 126.273 C 229.719 110.803,229.715 110.671,229.240 110.067 C 228.328 108.908,226.231 108.408,224.766 109.000 M160.413 195.374 C 153.810 197.340,149.594 203.305,151.391 208.139 C 155.354 218.798,172.462 219.362,177.165 208.989 C 180.755 201.071,170.170 192.468,160.413 195.374 M228.571 195.081 C 221.157 196.187,215.851 203.567,218.513 209.069 C 223.225 218.810,239.181 218.807,243.808 209.065 C 247.284 201.743,238.424 193.611,228.571 195.081 M233.167 200.664 C 236.798 201.533,238.518 204.557,237.190 207.736 C 235.500 211.781,227.319 211.988,225.303 208.037 C 223.018 203.559,227.542 199.318,233.167 200.664 M168.101 201.205 C 173.533 204.010,171.039 210.699,164.544 210.745 C 159.399 210.781,156.455 206.789,158.813 202.974 C 160.187 200.750,165.325 199.772,168.101 201.205 " stroke="none" fill="#0d0e0d" fill-rule="evenodd"></path><path id="path3" d="M132.386 4.992 C 94.178 5.045,90.908 5.080,90.619 5.429 C 90.229 5.898,90.015 168.452,90.403 169.248 C 90.543 169.536,90.652 179.806,90.696 196.711 C 90.733 211.564,90.827 223.778,90.903 223.854 C 91.265 224.216,295.005 224.465,308.333 224.120 L 309.237 224.096 309.414 194.607 C 309.777 133.955,309.735 5.792,309.352 5.425 C 308.981 5.070,224.380 4.863,132.386 4.992 M208.609 46.843 C 211.796 48.047,214.710 50.585,216.062 53.335 C 216.316 53.852,216.577 54.326,216.643 54.389 C 217.113 54.841,217.977 57.507,218.292 59.482 C 218.793 62.618,218.519 69.214,217.822 70.797 C 217.711 71.050,217.434 71.850,217.207 72.576 C 216.979 73.302,216.706 73.896,216.601 73.896 C 216.495 73.896,216.408 74.095,216.408 74.338 C 216.408 74.582,216.279 74.919,216.122 75.088 C 215.964 75.256,215.629 75.806,215.378 76.309 C 214.832 77.402,210.867 81.469,210.348 81.469 C 210.147 81.469,209.983 81.570,209.983 81.694 C 209.983 81.818,209.699 81.987,209.352 82.070 C 209.005 82.153,208.617 82.294,208.491 82.383 C 207.319 83.215,201.313 83.717,200.127 83.082 C 199.885 82.952,199.519 82.846,199.314 82.846 C 198.065 82.846,194.537 80.527,192.974 78.679 C 185.326 69.638,186.429 54.774,195.218 48.414 C 198.481 46.053,204.612 45.334,208.609 46.843 M182.290 47.188 C 183.649 47.424,183.579 47.033,184.500 59.551 C 184.742 62.834,185.047 62.464,182.292 62.231 C 175.728 61.676,171.658 64.407,171.658 69.365 C 171.658 72.404,172.496 73.833,174.756 74.647 C 176.448 75.256,177.429 75.545,177.515 75.459 C 177.627 75.347,177.247 70.820,176.933 68.523 C 176.615 66.197,176.307 66.330,182.026 66.326 C 187.354 66.322,187.629 66.397,187.369 67.780 C 187.221 68.571,186.949 71.983,186.580 77.682 C 186.449 79.702,186.317 81.493,186.286 81.663 C 186.165 82.336,182.416 82.961,177.395 83.146 C 176.155 83.191,170.665 82.609,170.401 82.403 C 170.272 82.303,169.779 82.161,169.305 82.089 C 164.824 81.400,159.558 76.691,157.705 71.715 C 156.483 68.436,156.463 61.110,157.669 58.925 C 157.790 58.705,157.889 58.416,157.889 58.281 C 157.889 57.330,159.903 54.039,161.468 52.430 C 164.443 49.374,167.526 47.913,173.035 46.945 C 173.825 46.807,181.208 47.000,182.290 47.188 M264.570 47.396 C 264.843 47.668,264.516 58.778,264.139 62.077 C 264.023 63.087,263.862 66.417,263.782 69.478 L 263.634 75.043 264.749 75.048 C 265.362 75.051,267.181 74.876,268.791 74.659 C 272.460 74.165,272.349 74.072,271.747 77.140 C 271.491 78.448,271.197 80.086,271.094 80.780 L 270.908 82.042 260.354 82.042 L 249.799 82.042 249.630 76.764 C 249.449 71.129,248.898 59.464,248.519 53.242 C 248.392 51.159,248.319 48.990,248.355 48.422 L 248.422 47.390 250.143 47.275 C 252.514 47.117,264.390 47.217,264.570 47.396 M240.357 47.616 C 240.429 47.804,240.551 48.501,240.629 49.165 C 240.706 49.829,240.860 50.579,240.971 50.832 C 241.082 51.084,241.276 51.910,241.402 52.668 C 241.712 54.527,242.014 56.027,242.467 57.946 C 242.675 58.830,242.987 60.224,243.160 61.044 C 243.556 62.920,244.037 65.058,244.526 67.126 C 245.165 69.824,245.269 70.289,245.551 71.715 C 245.701 72.473,245.914 73.299,246.025 73.551 C 246.136 73.804,246.325 74.527,246.447 75.158 C 246.568 75.789,246.839 77.028,247.049 77.912 C 247.696 80.639,247.860 81.568,247.744 81.868 C 247.584 82.285,234.926 82.288,234.598 81.870 C 234.474 81.713,234.311 81.183,234.236 80.694 C 234.027 79.337,234.359 79.221,230.123 82.129 C 228.821 83.022,228.772 83.000,227.786 81.050 C 226.939 79.375,226.949 79.373,226.357 81.354 L 226.151 82.042 222.402 82.106 L 218.652 82.169 218.770 81.417 C 218.874 80.753,219.218 79.250,219.862 76.649 C 219.971 76.208,220.178 75.278,220.321 74.584 C 220.464 73.890,220.642 73.167,220.717 72.978 C 220.792 72.788,220.981 72.065,221.139 71.371 C 221.795 68.475,222.175 66.843,222.396 65.978 C 222.524 65.473,222.734 64.492,222.861 63.798 C 222.989 63.104,223.182 62.329,223.291 62.077 C 223.400 61.824,223.599 60.895,223.734 60.011 C 223.869 59.128,224.140 57.631,224.336 56.684 C 224.533 55.737,224.747 54.653,224.813 54.274 C 224.878 53.896,225.072 52.811,225.244 51.865 C 225.416 50.918,225.624 49.640,225.705 49.024 C 225.787 48.408,225.909 47.763,225.975 47.590 C 226.163 47.100,240.169 47.126,240.357 47.616 M154.922 47.924 C 155.078 48.106,154.834 53.257,154.428 58.362 L 154.140 61.991 151.482 61.809 C 150.020 61.709,148.359 61.625,147.791 61.623 L 146.758 61.618 146.561 62.935 C 146.247 65.024,146.100 64.945,150.308 64.945 C 152.332 64.945,153.990 65.023,153.993 65.118 C 153.995 65.212,153.718 66.721,153.376 68.470 L 152.754 71.651 151.707 71.511 C 151.131 71.434,149.707 71.304,148.543 71.223 C 146.085 71.051,146.215 70.932,146.129 73.437 L 146.070 75.158 147.590 75.225 C 148.426 75.262,150.336 75.142,151.835 74.958 C 153.335 74.774,154.586 74.649,154.617 74.679 C 154.675 74.736,153.386 80.794,153.160 81.530 C 153.030 81.954,133.836 82.162,133.194 81.747 C 132.905 81.560,132.750 78.789,132.409 67.699 C 132.279 63.471,132.124 59.237,132.064 58.290 C 131.886 55.473,131.509 48.576,131.503 48.038 L 131.497 47.540 143.144 47.655 C 149.550 47.718,154.850 47.839,154.922 47.924 M202.065 62.868 C 199.082 64.088,199.699 72.825,202.846 73.922 C 206.281 75.119,208.299 64.735,204.966 63.011 C 204.223 62.627,202.822 62.558,202.065 62.868 M230.309 68.871 C 229.463 71.338,228.584 73.856,228.468 74.145 C 228.305 74.551,230.759 74.510,231.199 74.099 C 231.319 73.987,231.655 73.896,231.945 73.896 C 232.598 73.896,232.641 74.176,231.535 71.230 C 230.502 68.479,230.466 68.411,230.309 68.871 M126.131 74.025 C 127.096 74.745,127.646 75.601,127.846 76.693 C 128.034 77.713,128.600 80.428,128.961 82.042 C 129.074 82.547,129.325 83.735,129.518 84.682 C 129.712 85.628,130.004 87.022,130.167 87.780 L 130.465 89.157 202.065 89.271 L 273.666 89.386 274.375 89.892 C 276.452 91.373,276.347 92.078,272.984 99.254 C 272.806 99.633,272.459 100.407,272.211 100.975 C 271.806 101.905,270.375 105.113,269.140 107.860 C 268.885 108.428,267.877 110.648,266.899 112.794 C 265.922 114.940,264.889 117.212,264.603 117.843 C 264.317 118.474,263.735 119.746,263.310 120.671 C 262.884 121.595,262.536 122.389,262.536 122.436 C 262.536 122.483,262.111 123.430,261.591 124.542 C 261.071 125.654,260.462 126.976,260.238 127.481 C 260.014 127.986,259.368 129.432,258.801 130.694 C 258.234 131.956,257.562 133.454,257.308 134.022 C 257.053 134.590,255.894 137.172,254.733 139.759 C 253.572 142.347,252.416 144.928,252.164 145.496 C 251.912 146.064,251.366 147.252,250.950 148.135 C 250.535 149.019,249.970 150.258,249.697 150.889 C 249.423 151.520,249.005 152.450,248.767 152.955 C 248.064 154.447,247.160 156.517,247.160 156.633 C 247.160 156.693,247.496 156.744,247.906 156.748 C 259.810 156.855,269.616 167.475,265.910 176.248 C 263.632 181.639,257.981 185.722,251.291 186.812 C 249.819 187.052,138.235 187.133,137.565 186.895 C 135.174 186.045,134.393 183.803,135.894 182.093 C 137.354 180.431,132.199 180.554,193.460 180.717 C 251.995 180.873,250.348 180.896,253.127 179.878 C 260.388 177.218,261.016 167.889,254.159 164.552 C 251.111 163.069,255.397 163.167,193.651 163.167 L 137.533 163.167 136.589 162.483 C 135.485 161.683,134.940 160.748,134.940 159.653 C 134.940 159.222,134.829 158.313,134.694 157.633 C 134.559 156.953,134.362 155.881,134.257 155.250 C 134.152 154.618,134.004 153.844,133.928 153.528 C 133.852 153.213,133.731 152.387,133.658 151.692 C 133.586 150.998,133.444 150.224,133.343 149.971 C 133.241 149.719,133.031 148.635,132.876 147.562 C 132.720 146.489,132.503 145.095,132.392 144.464 C 132.282 143.832,132.054 142.438,131.886 141.365 C 131.719 140.293,131.523 139.260,131.452 139.071 C 131.381 138.881,131.200 137.900,131.049 136.890 C 130.899 135.881,130.684 134.538,130.571 133.907 C 130.458 133.276,130.212 131.830,130.025 130.694 C 129.603 128.138,129.005 124.645,128.730 123.121 C 128.499 121.837,128.004 118.883,127.500 115.777 C 127.177 113.790,126.667 110.842,126.229 108.434 C 126.114 107.803,125.863 106.357,125.671 105.221 C 124.089 95.847,123.561 93.025,122.189 86.632 C 121.728 84.487,121.260 82.266,121.149 81.698 C 121.038 81.130,120.892 80.433,120.825 80.149 L 120.703 79.633 115.190 79.633 C 109.080 79.633,108.454 79.506,107.420 78.054 C 106.273 76.442,107.406 73.932,109.436 73.589 C 111.693 73.208,125.520 73.568,126.131 74.025 M131.727 95.652 C 131.727 95.940,133.201 104.527,134.019 109.007 C 134.285 110.459,134.597 112.215,134.712 112.909 C 134.828 113.603,135.083 114.997,135.278 116.007 C 135.473 117.017,135.798 118.824,136.000 120.023 C 136.203 121.222,136.464 122.719,136.581 123.351 C 136.698 123.982,136.900 125.273,137.030 126.219 C 137.159 127.166,137.350 128.147,137.452 128.399 C 137.630 128.835,138.095 131.700,138.309 133.678 C 138.363 134.182,138.499 134.802,138.609 135.055 C 138.720 135.307,138.914 136.288,139.041 137.235 C 139.254 138.828,139.661 141.255,140.233 144.349 C 140.362 145.043,140.612 146.489,140.789 147.562 C 140.966 148.635,141.224 150.080,141.363 150.775 C 141.502 151.469,141.757 152.915,141.929 153.987 C 142.101 155.060,142.314 156.119,142.402 156.340 C 142.554 156.720,145.069 156.741,190.719 156.741 L 238.877 156.741 239.210 155.995 C 239.393 155.585,239.976 154.320,240.504 153.184 C 241.033 152.048,241.671 150.603,241.922 149.972 C 242.173 149.341,242.456 148.721,242.550 148.595 C 242.644 148.468,242.938 147.849,243.203 147.217 C 243.468 146.586,244.208 144.958,244.849 143.600 C 245.489 142.241,246.013 141.085,246.013 141.031 C 246.013 140.977,246.437 140.023,246.955 138.911 C 248.064 136.535,248.403 135.786,249.695 132.874 C 250.227 131.675,251.114 129.727,251.665 128.545 C 252.217 127.364,252.668 126.367,252.668 126.330 C 252.668 126.270,255.210 120.647,256.971 116.810 C 257.348 115.990,257.883 114.802,258.162 114.171 C 259.195 111.827,259.397 111.381,260.133 109.811 C 260.547 108.927,261.115 107.688,261.396 107.057 C 261.677 106.426,262.254 105.153,262.680 104.229 C 263.106 103.304,263.454 102.512,263.454 102.467 C 263.454 102.422,263.802 101.630,264.229 100.705 C 265.094 98.829,266.437 95.698,266.437 95.558 C 266.437 95.508,236.127 95.468,199.082 95.468 C 162.037 95.468,131.727 95.550,131.727 95.652 M161.026 109.585 L 162.020 110.622 162.020 126.330 L 162.020 142.039 161.221 142.838 C 159.549 144.509,156.783 144.499,155.195 142.815 L 154.446 142.021 154.448 126.719 C 154.449 107.884,154.307 108.548,158.326 108.548 L 160.033 108.548 161.026 109.585 M182.833 108.997 C 184.484 110.004,184.386 108.982,184.475 126.119 C 184.545 139.793,184.514 141.609,184.193 142.229 C 182.959 144.616,178.501 144.548,177.202 142.122 C 176.861 141.484,176.822 112.043,177.160 110.862 C 177.765 108.755,180.800 107.757,182.833 108.997 M205.773 109.030 C 207.292 109.968,207.229 109.226,207.229 126.219 C 207.229 139.346,207.179 141.714,206.890 142.273 C 205.811 144.360,201.776 144.524,200.362 142.538 C 199.684 141.585,199.604 111.028,200.277 110.000 C 201.254 108.510,204.114 108.004,205.773 109.030 M229.141 109.496 C 230.162 110.611,230.229 111.907,230.136 128.783 L 230.063 142.017 229.489 142.631 C 227.960 144.267,225.236 144.434,223.686 142.987 L 222.719 142.085 222.751 126.189 L 222.782 110.293 223.743 109.397 L 224.703 108.501 226.542 108.585 C 228.318 108.666,228.408 108.697,229.141 109.496 M166.724 194.630 C 167.860 194.768,168.824 194.974,168.866 195.088 C 168.908 195.202,169.166 195.296,169.440 195.296 C 169.970 195.296,172.470 196.533,172.987 197.051 C 173.158 197.221,173.377 197.361,173.475 197.361 C 173.753 197.361,175.644 199.209,176.442 200.260 C 178.946 203.560,179.030 207.578,176.666 210.945 C 175.948 211.968,173.749 214.074,173.227 214.240 C 172.995 214.314,172.806 214.470,172.806 214.588 C 172.806 214.706,172.658 214.802,172.478 214.802 C 172.297 214.802,172.011 214.931,171.842 215.089 C 171.317 215.579,170.116 216.179,169.661 216.179 C 169.421 216.179,169.096 216.308,168.939 216.466 C 168.445 216.959,161.045 216.857,159.610 216.337 C 149.808 212.782,147.643 203.721,155.135 197.608 C 155.450 197.351,155.812 197.055,155.938 196.952 C 156.375 196.595,159.188 195.295,159.525 195.295 C 159.710 195.295,159.964 195.194,160.087 195.070 C 160.290 194.867,162.630 194.479,164.085 194.407 C 164.400 194.392,165.588 194.492,166.724 194.630 M236.528 195.455 C 244.322 198.738,247.300 205.621,243.259 211.015 C 242.601 211.893,239.947 214.343,239.653 214.343 C 239.490 214.343,239.357 214.424,239.357 214.522 C 239.357 214.743,236.349 216.179,235.885 216.179 C 235.700 216.179,235.427 216.300,235.279 216.448 C 234.710 217.017,229.065 216.987,227.169 216.405 C 222.461 214.961,219.060 211.966,217.660 208.032 C 217.302 207.028,217.206 203.888,217.526 203.690 C 217.636 203.622,217.790 203.248,217.868 202.859 C 218.335 200.523,221.978 197.021,225.359 195.657 C 225.927 195.428,226.598 195.155,226.850 195.050 C 228.647 194.306,234.367 194.545,236.528 195.455 M229.030 201.067 C 226.615 201.637,225.129 203.462,225.129 205.858 C 225.129 206.619,225.231 207.229,225.359 207.229 C 225.485 207.229,225.588 207.376,225.588 207.556 C 225.588 210.421,233.006 211.465,235.728 208.982 C 239.903 205.173,235.197 199.612,229.030 201.067 M162.478 201.177 C 157.483 202.155,157.164 208.486,162.031 210.058 C 164.372 210.814,167.744 210.269,169.076 208.920 C 170.137 207.845,170.950 205.003,170.311 204.608 C 170.201 204.540,170.051 204.198,169.977 203.849 C 169.554 201.838,165.848 200.518,162.478 201.177 " stroke="none" fill="#907753" fill-rule="evenodd"></path><path id="path4" d="M93.632 4.810 C 93.064 4.893,140.981 4.963,200.115 4.965 C 259.248 4.968,306.959 4.897,306.139 4.807 C 304.263 4.601,95.037 4.604,93.632 4.810 M90.342 5.202 C 90.258 5.286,90.208 5.931,90.231 6.636 L 90.272 7.917 90.360 6.776 C 90.409 6.148,90.557 5.502,90.691 5.341 C 90.940 5.042,90.627 4.917,90.342 5.202 M309.352 5.391 C 309.735 5.856,309.777 133.964,309.414 194.607 L 309.237 224.096 308.333 224.120 C 295.000 224.466,91.265 224.216,90.903 223.854 C 90.826 223.777,90.729 211.512,90.685 196.596 C 90.639 180.761,90.520 169.387,90.398 169.260 C 90.273 169.129,90.189 180.067,90.189 196.613 C 90.189 217.216,90.256 224.225,90.454 224.348 C 90.600 224.438,91.091 224.551,91.545 224.598 C 91.998 224.646,92.503 224.863,92.666 225.079 C 92.945 225.449,96.127 225.477,144.932 225.533 C 179.011 225.572,196.902 225.671,196.902 225.820 C 196.902 225.954,197.797 226.047,199.082 226.047 C 200.382 226.047,201.262 226.140,201.262 226.277 C 201.262 226.429,218.971 226.506,253.930 226.506 C 288.889 226.506,306.598 226.429,306.598 226.277 C 306.598 226.150,306.856 226.047,307.172 226.047 C 307.487 226.047,307.745 225.955,307.745 225.842 C 307.745 225.730,308.001 225.574,308.314 225.495 C 309.364 225.232,310.234 224.131,310.404 222.852 C 310.489 222.211,310.648 221.687,310.758 221.687 C 310.871 221.687,310.958 175.888,310.958 116.007 C 310.958 54.996,310.872 10.327,310.755 10.327 C 310.644 10.327,310.509 9.649,310.457 8.820 C 310.404 7.991,310.245 7.241,310.103 7.153 C 309.961 7.065,309.811 6.590,309.770 6.096 C 309.725 5.552,309.560 5.155,309.352 5.087 C 309.046 4.987,309.046 5.020,309.352 5.391 M89.730 62.421 C 89.730 95.912,89.812 116.351,89.946 116.351 C 90.065 116.351,90.194 115.964,90.233 115.491 C 90.433 113.071,90.165 8.491,89.959 8.491 C 89.808 8.491,89.730 26.774,89.730 62.421 M109.436 73.589 C 107.406 73.932,106.273 76.442,107.420 78.054 C 108.454 79.506,109.080 79.633,115.190 79.633 L 120.703 79.633 120.825 80.149 C 120.892 80.433,121.038 81.130,121.149 81.698 C 121.260 82.266,121.728 84.487,122.189 86.632 C 123.561 93.025,124.089 95.847,125.671 105.221 C 125.863 106.357,126.114 107.803,126.229 108.434 C 126.667 110.842,127.177 113.790,127.500 115.777 C 128.004 118.883,128.499 121.837,128.730 123.121 C 129.005 124.645,129.603 128.138,130.025 130.694 C 130.212 131.830,130.458 133.276,130.571 133.907 C 130.684 134.538,130.899 135.881,131.049 136.890 C 131.200 137.900,131.381 138.881,131.452 139.071 C 131.523 139.260,131.719 140.293,131.886 141.365 C 132.054 142.438,132.282 143.832,132.392 144.464 C 132.503 145.095,132.720 146.489,132.876 147.562 C 133.031 148.635,133.241 149.719,133.343 149.971 C 133.444 150.224,133.586 150.998,133.658 151.692 C 133.731 152.387,133.852 153.213,133.928 153.528 C 134.004 153.844,134.152 154.618,134.257 155.250 C 134.362 155.881,134.559 156.953,134.694 157.633 C 134.829 158.313,134.940 159.222,134.940 159.653 C 134.940 160.748,135.485 161.683,136.589 162.483 L 137.533 163.167 193.651 163.167 C 255.397 163.167,251.111 163.069,254.159 164.552 C 261.016 167.889,260.388 177.218,253.127 179.878 C 250.348 180.896,251.995 180.873,193.460 180.717 C 132.199 180.554,137.354 180.431,135.894 182.093 C 134.393 183.803,135.174 186.045,137.565 186.895 C 138.235 187.133,249.819 187.052,251.291 186.812 C 263.672 184.795,270.279 173.946,264.459 165.190 C 261.315 160.462,254.143 156.804,247.906 156.748 C 247.496 156.744,247.160 156.693,247.160 156.633 C 247.160 156.517,248.064 154.447,248.767 152.955 C 249.005 152.450,249.423 151.520,249.697 150.889 C 249.970 150.258,250.535 149.019,250.950 148.135 C 251.366 147.252,251.912 146.064,252.164 145.496 C 252.416 144.928,253.572 142.347,254.733 139.759 C 255.894 137.172,257.053 134.590,257.308 134.022 C 257.562 133.454,258.234 131.956,258.801 130.694 C 259.368 129.432,260.014 127.986,260.238 127.481 C 260.462 126.976,261.071 125.654,261.591 124.542 C 262.111 123.430,262.536 122.483,262.536 122.436 C 262.536 122.389,262.884 121.595,263.310 120.671 C 263.735 119.746,264.317 118.474,264.603 117.843 C 264.889 117.212,265.922 114.940,266.899 112.794 C 267.877 110.648,268.885 108.428,269.140 107.860 C 270.375 105.113,271.806 101.905,272.211 100.975 C 272.459 100.407,272.806 99.633,272.984 99.254 C 276.347 92.078,276.452 91.373,274.375 89.892 L 273.666 89.386 202.065 89.271 L 130.465 89.157 130.167 87.780 C 130.004 87.022,129.712 85.628,129.518 84.682 C 129.325 83.735,129.074 82.547,128.961 82.042 C 128.600 80.428,128.034 77.713,127.846 76.693 C 127.646 75.601,127.096 74.745,126.131 74.025 C 125.520 73.568,111.693 73.208,109.436 73.589 M126.340 74.584 C 127.088 75.281,127.335 75.858,127.712 77.797 C 128.198 80.292,129.636 87.019,129.945 88.239 L 130.235 89.386 132.874 89.554 C 134.326 89.646,166.496 89.700,204.364 89.674 L 273.214 89.626 274.074 90.158 C 275.619 91.112,275.815 92.492,274.721 94.698 C 274.355 95.437,273.363 97.590,272.516 99.484 C 271.216 102.391,270.073 104.910,265.747 114.400 C 265.517 114.905,265.021 115.990,264.645 116.810 C 264.269 117.631,263.527 119.283,262.996 120.482 C 261.007 124.976,259.014 129.386,258.037 131.456 C 257.482 132.632,257.028 133.632,257.028 133.677 C 257.028 133.722,256.680 134.515,256.254 135.439 C 255.828 136.364,254.906 138.419,254.204 140.008 C 253.502 141.596,252.552 143.713,252.091 144.712 C 248.440 152.638,246.743 156.584,246.859 156.884 C 246.934 157.082,247.336 157.201,247.930 157.202 C 258.743 157.217,268.059 166.030,265.994 174.291 C 264.586 179.926,259.641 184.366,252.783 186.152 L 250.717 186.690 194.246 186.690 L 137.775 186.690 136.934 186.116 C 135.071 184.844,135.218 182.560,137.231 181.492 C 138.003 181.082,139.992 181.067,194.050 181.067 C 248.725 181.067,250.112 181.056,251.809 180.622 C 261.210 178.218,262.133 167.216,253.229 163.698 L 251.635 163.068 237.407 162.928 C 229.581 162.851,204.022 162.831,180.608 162.884 C 138.780 162.978,138.024 162.972,137.242 162.534 C 136.092 161.889,135.569 161.060,135.365 159.557 C 135.169 158.118,134.844 156.169,133.930 150.946 C 132.578 143.226,132.138 140.698,131.845 138.956 C 131.499 136.903,130.450 130.911,130.097 128.973 C 129.607 126.284,129.165 123.721,128.830 121.629 C 128.637 120.430,128.392 118.985,128.285 118.417 C 128.177 117.849,127.930 116.403,127.736 115.204 C 127.147 111.563,126.147 105.676,125.767 103.614 C 125.299 101.078,124.823 98.348,124.605 96.959 C 124.396 95.634,123.883 92.886,123.577 91.452 C 123.407 90.658,122.639 86.915,122.163 84.567 C 121.984 83.683,121.745 82.547,121.631 82.042 C 121.518 81.538,121.355 80.815,121.271 80.436 C 120.995 79.199,120.865 79.174,114.816 79.174 L 109.238 79.174 108.320 78.344 C 106.895 77.057,107.011 75.662,108.647 74.398 L 109.320 73.879 117.522 73.945 L 125.724 74.010 126.340 74.584 M135.743 95.235 C 131.562 95.348,131.384 95.372,131.412 95.812 C 131.452 96.452,131.934 99.504,132.190 100.746 C 132.308 101.314,132.565 102.760,132.762 103.959 C 132.960 105.158,133.216 106.655,133.333 107.286 C 133.449 107.917,133.710 109.466,133.913 110.729 C 134.116 111.991,134.373 113.385,134.485 113.827 C 134.596 114.269,134.851 115.611,135.051 116.810 C 135.252 118.009,135.514 119.507,135.635 120.138 C 135.980 121.950,136.499 124.882,136.629 125.760 C 136.695 126.202,136.952 127.699,137.200 129.088 C 137.448 130.476,137.701 131.922,137.762 132.301 C 137.823 132.679,138.148 134.538,138.484 136.431 C 138.820 138.325,139.241 140.700,139.418 141.710 C 139.596 142.719,139.854 144.165,139.991 144.923 C 140.129 145.680,140.394 147.229,140.582 148.365 C 141.669 154.954,141.980 156.529,142.243 156.793 C 142.612 157.161,238.186 157.352,238.870 156.986 C 239.098 156.864,239.885 155.442,240.620 153.827 C 241.354 152.211,242.336 150.063,242.802 149.053 C 243.269 148.044,244.040 146.340,244.517 145.267 C 244.994 144.194,245.836 142.349,246.387 141.167 C 246.938 139.985,247.390 138.986,247.390 138.946 C 247.390 138.885,251.050 130.736,252.436 127.711 C 254.802 122.549,255.653 120.672,257.379 116.810 C 258.479 114.349,260.101 110.734,260.984 108.778 C 265.368 99.060,266.667 96.074,266.667 95.709 C 266.667 95.340,265.948 95.300,256.741 95.154 C 245.745 94.979,142.649 95.048,135.743 95.235 M266.437 95.558 C 266.437 95.698,265.094 98.829,264.229 100.705 C 263.802 101.630,263.454 102.422,263.454 102.467 C 263.454 102.512,263.106 103.304,262.680 104.229 C 262.254 105.153,261.677 106.426,261.396 107.057 C 261.115 107.688,260.547 108.927,260.133 109.811 C 259.397 111.381,259.195 111.827,258.162 114.171 C 257.883 114.802,257.348 115.990,256.971 116.810 C 255.210 120.647,252.668 126.270,252.668 126.330 C 252.668 126.367,252.217 127.364,251.665 128.545 C 251.114 129.727,250.227 131.675,249.695 132.874 C 248.403 135.786,248.064 136.535,246.955 138.911 C 246.437 140.023,246.013 140.977,246.013 141.031 C 246.013 141.085,245.489 142.241,244.849 143.600 C 244.208 144.958,243.468 146.586,243.203 147.217 C 242.938 147.849,242.644 148.468,242.550 148.595 C 242.456 148.721,242.173 149.341,241.922 149.972 C 241.671 150.603,241.033 152.048,240.504 153.184 C 239.976 154.320,239.393 155.585,239.210 155.995 L 238.877 156.741 190.719 156.741 C 145.069 156.741,142.554 156.720,142.402 156.340 C 142.314 156.119,142.101 155.060,141.929 153.987 C 141.757 152.915,141.502 151.469,141.363 150.775 C 141.224 150.080,140.966 148.635,140.789 147.562 C 140.612 146.489,140.362 145.043,140.233 144.349 C 139.661 141.255,139.254 138.828,139.041 137.235 C 138.914 136.288,138.720 135.307,138.609 135.055 C 138.499 134.802,138.363 134.182,138.309 133.678 C 138.095 131.700,137.630 128.835,137.452 128.399 C 137.350 128.147,137.159 127.166,137.030 126.219 C 136.900 125.273,136.698 123.982,136.581 123.351 C 136.464 122.719,136.203 121.222,136.000 120.023 C 135.798 118.824,135.473 117.017,135.278 116.007 C 135.083 114.997,134.828 113.603,134.712 112.909 C 134.597 112.215,134.285 110.459,134.019 109.007 C 133.201 104.527,131.727 95.940,131.727 95.652 C 131.727 95.550,162.037 95.468,199.082 95.468 C 236.127 95.468,266.437 95.508,266.437 95.558 M155.772 109.123 C 154.441 110.028,154.449 109.927,154.448 126.719 L 154.446 142.021 155.195 142.815 C 156.783 144.499,159.549 144.509,161.221 142.838 L 162.020 142.039 162.020 126.330 L 162.020 110.622 161.026 109.585 L 160.033 108.548 158.326 108.548 C 156.882 108.548,156.488 108.637,155.772 109.123 M178.887 108.767 C 178.182 109.059,177.408 109.997,177.160 110.862 C 176.822 112.043,176.861 141.484,177.202 142.122 C 178.501 144.548,182.959 144.616,184.193 142.229 C 184.780 141.094,184.581 110.993,183.981 110.076 C 183.102 108.736,180.549 108.080,178.887 108.767 M201.367 108.976 C 199.798 109.933,199.885 108.922,199.885 126.233 C 199.885 141.698,199.890 141.876,200.362 142.538 C 201.776 144.524,205.811 144.360,206.890 142.273 C 207.179 141.714,207.229 139.346,207.229 126.219 C 207.229 109.226,207.292 109.968,205.773 109.030 C 204.735 108.388,202.378 108.359,201.367 108.976 M223.743 109.397 L 222.782 110.293 222.751 126.189 L 222.719 142.085 223.686 142.987 C 225.236 144.434,227.960 144.267,229.489 142.631 L 230.063 142.017 230.136 128.783 C 230.249 108.387,230.314 108.756,226.542 108.585 L 224.703 108.501 223.743 109.397 M160.787 109.763 L 161.561 110.607 161.561 126.299 L 161.561 141.991 160.929 142.623 C 159.454 144.100,156.337 143.996,155.242 142.432 C 154.707 141.668,154.740 110.952,155.276 110.186 C 156.477 108.472,159.398 108.248,160.787 109.763 M182.303 109.096 C 184.155 109.870,184.050 108.840,184.050 126.382 L 184.050 141.964 183.267 142.723 C 181.938 144.012,179.448 144.006,178.125 142.712 L 177.395 141.999 177.395 126.338 L 177.395 110.676 177.892 110.044 C 178.826 108.856,180.743 108.445,182.303 109.096 M204.976 108.980 C 205.269 109.092,205.792 109.467,206.139 109.815 L 206.770 110.447 206.770 126.205 L 206.770 141.964 205.974 142.735 C 204.488 144.175,201.595 143.884,200.538 142.187 C 199.880 141.129,199.977 111.101,200.642 110.121 C 201.419 108.977,203.518 108.425,204.976 108.980 M228.104 109.118 C 229.831 110.011,229.719 108.824,229.719 126.273 L 229.719 141.870 228.957 142.633 C 227.566 144.024,224.998 144.011,223.765 142.608 L 223.064 141.808 223.064 126.229 L 223.064 110.649 223.676 109.921 C 224.659 108.753,226.687 108.385,228.104 109.118 M161.912 194.641 C 161.032 194.753,160.211 194.947,160.087 195.070 C 159.964 195.194,159.710 195.295,159.525 195.295 C 159.188 195.295,156.375 196.595,155.938 196.952 C 155.812 197.055,155.450 197.351,155.135 197.608 C 147.643 203.721,149.808 212.782,159.610 216.337 C 161.045 216.857,168.445 216.959,168.939 216.466 C 169.096 216.308,169.421 216.179,169.661 216.179 C 170.116 216.179,171.317 215.579,171.842 215.089 C 172.011 214.931,172.297 214.802,172.478 214.802 C 172.658 214.802,172.806 214.706,172.806 214.588 C 172.806 214.470,172.995 214.314,173.227 214.240 C 173.749 214.074,175.948 211.968,176.666 210.945 C 179.030 207.578,178.946 203.560,176.442 200.260 C 175.644 199.209,173.753 197.361,173.475 197.361 C 173.377 197.361,173.158 197.221,172.987 197.051 C 172.470 196.533,169.970 195.296,169.440 195.296 C 169.166 195.296,168.908 195.202,168.866 195.088 C 168.788 194.877,165.128 194.356,164.085 194.407 C 163.769 194.423,162.791 194.528,161.912 194.641 M227.768 194.748 C 227.516 194.810,227.103 194.946,226.850 195.050 C 226.598 195.155,225.927 195.428,225.359 195.657 C 221.978 197.021,218.335 200.523,217.868 202.859 C 217.790 203.248,217.636 203.622,217.526 203.690 C 217.206 203.888,217.302 207.028,217.660 208.032 C 219.060 211.966,222.461 214.961,227.169 216.405 C 229.065 216.987,234.710 217.017,235.279 216.448 C 235.427 216.300,235.700 216.179,235.885 216.179 C 236.349 216.179,239.357 214.743,239.357 214.522 C 239.357 214.424,239.490 214.343,239.653 214.343 C 239.947 214.343,242.601 211.893,243.259 211.015 C 247.300 205.621,244.322 198.738,236.528 195.455 C 234.915 194.776,229.460 194.335,227.768 194.748 M167.553 195.071 C 174.772 196.440,179.651 203.505,177.165 208.989 C 172.462 219.362,155.354 218.798,151.391 208.139 C 148.742 201.016,158.272 193.311,167.553 195.071 M233.691 195.089 C 241.264 196.250,246.475 203.448,243.808 209.065 C 239.689 217.739,226.774 219.025,220.086 211.426 C 213.501 203.945,222.326 193.348,233.691 195.089 M228.979 200.684 C 225.392 201.671,223.740 204.975,225.303 208.037 C 227.319 211.988,235.500 211.781,237.190 207.736 C 239.081 203.210,234.402 199.191,228.979 200.684 M161.905 200.820 C 159.110 201.518,157.554 204.286,158.333 207.175 C 159.603 211.886,168.773 212.164,170.502 207.544 C 172.230 202.925,167.693 199.376,161.905 200.820 M234.209 201.368 C 238.394 203.116,238.129 208.672,233.794 210.072 C 230.491 211.139,225.588 209.635,225.588 207.556 C 225.588 207.376,225.485 207.229,225.359 207.229 C 224.876 207.229,225.104 204.532,225.674 203.506 C 226.990 201.136,231.155 200.093,234.209 201.368 M167.986 201.630 C 169.004 202.139,169.805 203.031,169.977 203.849 C 170.051 204.198,170.201 204.540,170.311 204.608 C 171.689 205.460,169.372 209.283,167.039 210.010 C 161.189 211.830,156.043 206.803,159.570 202.713 C 160.948 201.114,165.726 200.500,167.986 201.630 " stroke="none" fill="#515851" fill-rule="evenodd"></path></g></svg>