<svg xmlns="http://www.w3.org/2000/svg" xmlns:xlink="http://www.w3.org/1999/xlink" width="64" height="64" preserveAspectRatio="xMidYMid meet" viewBox="0 0 64 64" style="-ms-transform: rotate(360deg); -webkit-transform: rotate(360deg); transform: rotate(360deg);"><path d="M26 17.76v3.38h37.965c-.053-1.09-.167-2.468-.575-3.38" fill="#ec1c24"/><path d="M61.6 14.38H26v3.38h37.39c-.406-1.261-1.01-2.411-1.79-3.38" fill="#e6e7e8"/><path d="M54 11H26v3.38h35.6C59.931 12.29 57.184 11 54 11" fill="#ec1c24"/><path d="M63.965 21.14H26v3.38h38v-2.253c0-.201-.013-.397-.019-.594c-.004-.054-.01-.193-.016-.533" fill="#e6e7e8"/><path d="M26 27.9h38v-3.38H26v3.38" fill="#ec1c24"/><path d="M26 31.28h38V27.9H26v3.38" fill="#e6e7e8"/><path d="M26 31.28h38v3.38H26z" fill="#ec1c24"/><path d="M0 34.66v3.38h64v-3.38H26z" fill="#e6e7e8"/><path d="M0 38.04h64v3.38H0z" fill="#ec1c24"/><path d="M.005 43.499s-.009.819.015 1.301h63.96c.028-.494.015-1.301.015-1.301L64 41.42H0z" fill="#e6e7e8"/><path d="M10 55h44c3.193 0 5.847-1.16 7.66-3.44H2.33C4.202 53.89 6.906 55 9.995 55" fill="#ec1c24"/><path d="M2.335 51.56h59.33a9.993 9.993 0 0 0 1.74-3.38H.605a10.363 10.363 0 0 0 1.735 3.38" fill="#e6e7e8"/><path d="M.6 48.18h62.8a14.38 14.38 0 0 0 .58-3.38H.02c.099 1.156.191 2.029.58 3.38" fill="#ec1c24"/><path d="M26 11H10C3.373 11 0 15.925 0 22v12.66h26z" fill="#176496"/><g fill="#fff"><path d="M2.798 16.976l.544-.418l.543.418l-.211-.672l.541-.411h-.668l-.207-.675l-.206.675h-.667l.543.411z"/><path d="M6.392 16.976l.544-.418l.543.418l-.21-.672l.54-.411h-.667l-.207-.675l-.206.675H6.06l.543.411z"/><path d="M10.357 16.976l.543-.418l.544.418l-.211-.672l.54-.411h-.663l-.21-.675l-.207.675h-.663l.537.411z"/><path d="M14.293 16.976l.543-.418l.544.418l-.21-.672l.54-.411h-.67l-.204-.675l-.206.675h-.668l.542.411z"/><path d="M18.243 16.976l.544-.418l.543.418l-.21-.672l.541-.411h-.669l-.206-.675l-.206.675h-.667l.54.411z"/><path d="M4.711 18.731l.543-.417l.543.417l-.209-.671l.54-.411H5.46l-.207-.674l-.203.674h-.67l.541.411z"/><path d="M8.306 18.731l.543-.417l.543.417l-.21-.671l.54-.411H9.05l-.201-.674l-.207.674h-.667l.541.411z"/><path d="M12.271 18.731l.542-.417l.543.417l-.21-.671l.541-.411h-.667l-.207-.674l-.207.674h-.668l.541.411z"/><path d="M16.205 18.731l.544-.417l.544.417l-.213-.671l.542-.411h-.667l-.207-.674l-.205.674h-.668l.541.411z"/><path d="M20.16 18.731l.539-.417l.543.417l-.212-.671l.542-.411h-.666l-.208-.674l-.205.674h-.668l.541.411z"/><path d="M22.387 16.976l.543-.418l.544.418l-.211-.672l.54-.411h-.663l-.211-.675l-.206.675h-.673l.547.411z"/><path d="M2.745 31.02l.544-.413l.543.413l-.21-.666l.54-.412l-.667.002l-.208-.674l-.204.674l-.669-.002l.541.412z"/><path d="M6.34 31.02l.543-.413l.544.413l-.211-.666l.54-.412l-.666.002l-.208-.674l-.205.674l-.667-.002l.54.412z"/><path d="M10.305 31.02l.543-.413l.544.413l-.211-.666l.54-.412l-.671.002l-.203-.674l-.206.674l-.667-.002l.541.412z"/><path d="M14.241 31.02l.543-.413l.543.413l-.207-.666l.537-.412l-.668.002l-.206-.674l-.206.674l-.667-.002l.54.412z"/><path d="M18.19 31.02l.544-.413l.544.413l-.208-.666l.537-.412l-.667.002l-.207-.674l-.205.674l-.668-.002l.54.412z"/><path d="M22.334 31.02l.543-.413l.544.413l-.211-.666l.541-.412l-.671.002l-.204-.674l-.206.674l-.67-.002l.544.412z"/><path d="M2.798 20.488l.544-.418l.543.418l-.211-.672l.541-.411l-.668.002l-.207-.676l-.206.676l-.667-.002l.543.411z"/><path d="M6.392 20.488l.544-.418l.543.418l-.21-.672l.54-.411l-.667.002l-.207-.676l-.206.676l-.669-.002l.543.411z"/><path d="M10.357 20.488l.543-.418l.544.418l-.211-.672l.54-.411l-.663.002l-.21-.676l-.207.676l-.663-.002l.537.411z"/><path d="M14.293 20.488l.543-.418l.544.418l-.21-.672l.54-.411l-.67.002l-.204-.676l-.206.676l-.668-.002l.542.411z"/><path d="M18.243 20.488l.544-.418l.543.418l-.21-.672l.541-.411l-.669.002l-.206-.676l-.206.676l-.667-.002l.54.411z"/><path d="M4.711 22.244l.543-.417l.543.417l-.209-.671l.54-.413H5.46l-.207-.672l-.203.672h-.67l.541.413z"/><path d="M8.306 22.244l.543-.417l.543.417l-.21-.671l.54-.413H9.05l-.201-.672l-.207.672h-.667l.541.413z"/><path d="M12.271 22.244l.542-.417l.543.417l-.21-.671l.541-.413h-.667l-.207-.672l-.207.672h-.668l.541.413z"/><path d="M16.205 22.244l.544-.417l.544.417l-.213-.671l.542-.413h-.667l-.207-.672l-.205.672h-.668l.541.413z"/><path d="M20.16 22.244l.539-.417l.543.417l-.212-.671l.542-.413h-.666l-.208-.672l-.205.672h-.668l.541.413z"/><path d="M22.387 20.488l.543-.418l.544.418l-.211-.672l.54-.411l-.663.002l-.211-.676l-.206.676l-.673-.002l.547.411z"/><path d="M2.745 24l.544-.417l.543.417l-.211-.67l.541-.412l-.668.002l-.207-.676l-.204.676l-.669-.002l.541.412z"/><path d="M6.34 24l.543-.417l.544.417l-.211-.67l.54-.412l-.666.002l-.208-.676l-.205.676l-.667-.002l.539.412z"/><path d="M10.305 24l.543-.417l.543.417l-.21-.67l.54-.412l-.671.002l-.203-.676l-.206.676l-.667-.002l.541.412z"/><path d="M14.241 24l.542-.417l.544.417l-.207-.67l.537-.412l-.668.002l-.206-.676l-.206.676l-.667-.002l.54.412z"/><path d="M18.19 24l.544-.417l.543.417l-.207-.67l.537-.412l-.668.002l-.206-.676l-.205.676l-.668-.002l.54.412z"/><path d="M4.658 25.756l.543-.416l.543.416l-.209-.666l.539-.414h-.668L5.2 24l-.205.676h-.668l.541.414z"/><path d="M8.253 25.756l.543-.416l.543.416l-.21-.666l.54-.414H9L8.795 24l-.206.676h-.668l.542.414z"/><path d="M12.219 25.756l.541-.416l.544.416l-.214-.666l.544-.414h-.667L12.76 24l-.206.676h-.668l.541.414z"/><path d="M16.15 25.756l.546-.416l.544.416l-.21-.666l.539-.414h-.667L16.695 24l-.205.676h-.668l.541.414z"/><path d="M20.1 25.756l.546-.416l.544.416l-.211-.666l.542-.414h-.667L20.646 24l-.206.676h-.668l.541.414z"/><path d="M22.334 24l.543-.417l.543.417l-.21-.67l.541-.412l-.671.002l-.204-.676l-.206.676l-.67-.002l.544.412z"/><path d="M2.745 27.513l.544-.413l.543.413l-.211-.671l.541-.412l-.668.002l-.207-.676l-.204.676l-.669-.002l.541.412z"/><path d="M6.34 27.513l.543-.413l.544.413l-.211-.671l.54-.412l-.666.002l-.208-.676l-.205.676l-.667-.002l.539.412z"/><path d="M10.305 27.513l.543-.413l.543.413l-.21-.671l.54-.412l-.671.002l-.203-.676l-.206.676l-.667-.002l.541.412z"/><path d="M14.241 27.513l.542-.413l.544.413l-.207-.671l.537-.412l-.668.002l-.206-.676l-.206.676l-.667-.002l.54.412z"/><path d="M18.19 27.513l.544-.413l.543.413l-.207-.671l.537-.412l-.668.002l-.206-.676l-.205.676l-.668-.002l.54.412z"/><path d="M4.658 29.27l.543-.418l.543.418l-.209-.672l.539-.408h-.668l-.206-.677l-.205.677h-.668l.541.408z"/><path d="M8.253 29.27l.543-.418l.543.418l-.21-.672l.54-.408H9l-.205-.677l-.206.677h-.668l.542.408z"/><path d="M12.219 29.27l.541-.418l.544.418l-.214-.672l.544-.408h-.667l-.207-.677l-.206.677h-.668l.541.408z"/><path d="M16.15 29.27l.546-.418l.544.418l-.21-.672l.539-.408h-.667l-.207-.677l-.205.677h-.668l.541.408z"/><path d="M20.1 29.27l.546-.418l.544.418l-.211-.672l.542-.408h-.667l-.208-.677l-.206.677h-.668l.541.408z"/><path d="M22.334 27.513l.543-.413l.543.413l-.21-.671l.541-.412l-.671.002l-.204-.676l-.206.676l-.67-.002l.544.412z"/></g><rect x="0" y="0" width="64" height="64" fill="rgba(0, 0, 0, 0)" /></svg>