<svg xmlns="http://www.w3.org/2000/svg" xmlns:xlink="http://www.w3.org/1999/xlink" width="64" height="64" preserveAspectRatio="xMidYMid meet" viewBox="0 0 64 64" style="-ms-transform: rotate(360deg); -webkit-transform: rotate(360deg); transform: rotate(360deg);"><switch><g><path fill="#2b3990" d="M0 22h64v20H0z"/><path fill="#ec1c24" d="M10 54h44c5.086 0 8.247-2.905 9.446-7H.554c1.199 4.095 4.36 7 9.446 7"/><path fill="#ec1c24" d="M54 10H10c-5.086 0-8.247 2.905-9.446 7h62.893c-1.2-4.095-4.361-7-9.447-7"/><path fill="#e6e7e8" d="M64 42H0v1c0 1.413.19 2.759.554 4h62.893c.363-1.241.553-2.587.553-4v-1"/><path fill="#e6e7e8" d="M64 21c0-1.413-.19-2.759-.554-4H.554A14.215 14.215 0 0 0 0 21v1h64v-1z"/></g></switch><rect x="0" y="0" width="64" height="64" fill="rgba(0, 0, 0, 0)" /></svg>