<?xml version="1.0" encoding="utf-8"?>
<!-- Svg Vector Icons : http://www.onlinewebfonts.com/icon -->
<!DOCTYPE svg PUBLIC "-//W3C//DTD SVG 1.1//EN" "http://www.w3.org/Graphics/SVG/1.1/DTD/svg11.dtd">
<svg version="1.1" xmlns="http://www.w3.org/2000/svg" xmlns:xlink="http://www.w3.org/1999/xlink" x="0px" y="0px" viewBox="0 0 1000 1000" enable-background="new 0 0 1000 1000" xml:space="preserve">
<metadata> Svg Vector Icons : http://www.onlinewebfonts.com/icon </metadata>
<g><path d="M212.8,550.7c-56,0-101.4,45.4-101.4,101.4v236.6c0,56,45.4,101.4,101.4,101.4c56,0,101.4-45.4,101.4-101.4V652.1C314.1,596.1,268.7,550.7,212.8,550.7z"/><path d="M787.2,550.7c-56,0-101.4,45.4-101.4,101.4v236.6c0,56,45.4,101.4,101.4,101.4s101.4-45.4,101.4-101.4V652.1C888.6,596.1,843.2,550.7,787.2,550.7z"/><path d="M500,10C229.8,10,10,229.8,10,500v354.8c0,18.7,15.1,33.8,33.8,33.8c18.7,0,33.8-15.1,33.8-33.8V500C77.6,267.1,267.1,77.6,500,77.6c232.9,0,422.4,189.5,422.4,422.4v321c0,18.7,15.1,33.8,33.8,33.8c18.7,0,33.8-15.1,33.8-33.8V500C990,229.8,770.2,10,500,10z"/></g>
</svg>