<svg xmlns="http://www.w3.org/2000/svg" xmlns:xlink="http://www.w3.org/1999/xlink" width="32" height="32" preserveAspectRatio="xMidYMid meet" viewBox="0 0 32 32" style="-ms-transform: rotate(360deg); -webkit-transform: rotate(360deg); transform: rotate(360deg);"><path d="M29.53 6.15a1 1 0 0 0-1 0L20 10.38V7a1 1 0 0 0-1.45-.89L10 10.38V3a1 1 0 0 0-1-1H3a1 1 0 0 0-1 1v25h28V7a1 1 0 0 0-.47-.85zM22 26h-4v-7h4zm6 0h-4v-8a1 1 0 0 0-1-1h-6a1 1 0 0 0-1 1v8H4V4h4v9.62l10-5v5l10-5z" fill="#626262"/><rect x="0" y="0" width="32" height="32" fill="rgba(0, 0, 0, 0)" /></svg>