<svg xmlns="http://www.w3.org/2000/svg" xmlns:xlink="http://www.w3.org/1999/xlink" width="64" height="64" preserveAspectRatio="xMidYMid meet" viewBox="0 0 64 64" style="-ms-transform: rotate(360deg); -webkit-transform: rotate(360deg); transform: rotate(360deg);"><g fill="#58595b"><path d="M60.77 41.09c1.02-.207 2.114-.711 1.829-1.932c-.262-1.115-1.562-2.046-2.306-2.831c-.309-.324-.787-.775-.838-1.248c-.041-.389.6-.891.83-1.158c.311-.359.5-.77.604-1.233c.441-1.961-1.252-3.479-2.498-4.698c-.497-.488-1.233.297-.739.781c1.202 1.176 3.161 2.888 1.673 4.619c-.754.879-1.244 1.617-.598 2.699c.508.855 1.338 1.531 2.02 2.243c.318.332.674.701.826 1.146c.139.406-.898.537-1.119.584c-.68.137-.355 1.163.318 1.028"/><path d="M8.76 13.604c.609-1.493 2.384-1.774 3.79-2.047c.77-.152 1.463 0 2.204-.32c.57-.248.951-.989 1.27-1.479c1.248-1.928 3.095-.658 4.794-.346c1.724.32 3.216-.958 4.928-.704c.676.1.969-.936.285-1.037c-1.933-.285-3.614 1.041-5.51.58c-1.551-.375-3.142-1.227-4.591-.012c-.695.583-.984 1.551-1.719 2.067c-.398.277-1.233.07-1.702.16a54.72 54.72 0 0 0-1.279.268c-1.547.354-2.886 1.064-3.509 2.584c-.262.643.779.918 1.039.286"/></g><path d="M54.001 35.35a2.583 2.583 0 0 1-2.582 2.585H2.784A2.586 2.586 0 0 1 .2 35.35V15.18a2.584 2.584 0 0 1 2.584-2.582h48.634A2.582 2.582 0 0 1 54 15.181v20.16" fill="#a6a8ab"/><g fill="#e6e7e8"><path d="M41.706 35.24c0 .142-.656.255-1.466.255H12.663c-.809 0-1.463-.113-1.463-.255v-2.16c0-.137.654-.25 1.463-.25H40.24c.81 0 1.466.113 1.466.25v2.16"/><path d="M10.351 30.838c0 .137-.186.25-.413.25H2.191c-.229 0-.412-.113-.412-.25v-2.161c0-.141.184-.252.412-.252h7.748c.227 0 .413.111.413.252v2.161z"/><path d="M52.809 30.838c0 .137-.141.25-.312.25h-5.904c-.172 0-.312-.113-.312-.25v-2.161c0-.141.141-.252.312-.252h5.904c.172 0 .312.111.312.252v2.161"/><path d="M5.513 35.16c0 .141-.102.254-.227.254H2.007c-.127 0-.229-.113-.229-.254v-2.161c0-.139.102-.25.229-.25h3.279c.125 0 .227.111.227.25z"/><path d="M14.632 30.838c0 .137-.059.25-.133.25h-2.462c-.072 0-.129-.113-.129-.25v-2.161c0-.141.057-.252.129-.252h2.462c.074 0 .133.111.133.252v2.161"/><path d="M18.928 30.838c0 .137-.059.25-.131.25h-2.461c-.074 0-.133-.113-.133-.25v-2.161c0-.141.059-.252.133-.252h2.461c.072 0 .131.111.131.252v2.161"/><path d="M45.66 35.34c0 .086-.061.156-.133.156h-2.462c-.072 0-.133-.07-.133-.156v-1.335c0-.084.061-.154.133-.154h2.462c.072 0 .133.07.133.154v1.335"/><path d="M49.148 35.34c0 .086-.059.156-.131.156h-2.464c-.072 0-.129-.07-.129-.156v-1.335c0-.084.057-.154.129-.154h2.464c.072 0 .131.07.131.154v1.335"/><path d="M49.148 33.34c0 .086-.059.156-.131.156h-2.464c-.072 0-.129-.07-.129-.156v-1.332c0-.086.057-.156.129-.156h2.464c.072 0 .131.07.131.156v1.332"/><path d="M52.74 35.34c0 .086-.057.156-.131.156h-2.462c-.072 0-.133-.07-.133-.156v-1.335c0-.084.061-.154.133-.154h2.462c.074 0 .131.07.131.154v1.335"/><path d="M23.25 30.838c0 .137-.059.25-.133.25h-2.462c-.072 0-.129-.113-.129-.25v-2.161c0-.141.057-.252.129-.252h2.461c.074 0 .133.111.133.252v2.161z"/><path d="M27.553 30.838c0 .137-.059.25-.133.25h-2.462c-.074 0-.131-.113-.131-.25v-2.161c0-.141.057-.252.131-.252h2.462c.074 0 .133.111.133.252v2.161"/><path d="M31.878 30.838c0 .137-.059.25-.129.25h-2.463c-.072 0-.131-.113-.131-.25v-2.161c0-.141.059-.252.131-.252h2.463c.07 0 .129.111.129.252v2.161"/><path d="M36.177 30.838c0 .137-.059.25-.131.25h-2.464c-.072 0-.131-.113-.131-.25v-2.161c0-.141.059-.252.131-.252h2.464c.072 0 .131.111.131.252v2.161"/><path d="M40.5 30.838c0 .137-.057.25-.129.25h-2.466c-.07 0-.129-.113-.129-.25v-2.161c0-.141.059-.252.129-.252h2.466c.072 0 .129.111.129.252v2.161"/><path d="M44.8 30.838c0 .137-.059.25-.131.25h-2.462c-.072 0-.131-.113-.131-.25v-2.161c0-.141.059-.252.131-.252h2.462c.072 0 .131.111.131.252v2.161"/><path d="M13.77 26.48c0 .139-.059.25-.131.25h-2.461c-.074 0-.133-.111-.133-.25v-2.163c0-.137.059-.25.133-.25h2.461c.072 0 .131.113.131.25v2.163"/><path d="M18.068 26.48c0 .139-.061.25-.131.25h-2.464c-.072 0-.131-.111-.131-.25v-2.163c0-.137.059-.25.131-.25h2.464c.07 0 .131.113.131.25v2.163"/><path d="M22.39 26.48c0 .139-.057.25-.129.25h-2.464c-.074 0-.131-.111-.131-.25v-2.163c0-.137.057-.25.131-.25h2.464c.072 0 .129.113.129.25v2.163"/><path d="M5.162 26.48c0 .139-.059.25-.129.25H2.57c-.074 0-.131-.111-.131-.25v-2.163c0-.137.057-.25.131-.25h2.464c.07 0 .129.113.129.25v2.163"/><path d="M9.49 26.48c0 .139-.059.25-.129.25H6.895c-.07 0-.129-.111-.129-.25v-2.163c0-.137.059-.25.129-.25H9.36c.07 0 .129.113.129.25v2.163z"/><path d="M26.689 26.48c0 .139-.057.25-.129.25h-2.465c-.07 0-.129-.111-.129-.25v-2.163c0-.137.059-.25.129-.25h2.465c.072 0 .129.113.129.25v2.163"/><path d="M31.018 26.48c0 .139-.059.25-.131.25h-2.463c-.072 0-.131-.111-.131-.25v-2.163c0-.137.059-.25.131-.25h2.463c.072 0 .131.113.131.25v2.163"/><path d="M35.31 26.48c0 .139-.057.25-.129.25H32.72c-.075 0-.133-.111-.133-.25v-2.163c0-.137.059-.25.133-.25h2.461c.072 0 .129.113.129.25v2.163"/><path d="M39.642 26.48c0 .139-.059.25-.132.25h-2.463c-.072 0-.129-.111-.129-.25v-2.163c0-.137.057-.25.129-.25h2.463c.073 0 .132.113.132.25v2.163"/><path d="M43.938 26.48c0 .139-.057.25-.131.25h-2.462c-.074 0-.133-.111-.133-.25v-2.163c0-.137.059-.25.133-.25h2.462c.074 0 .131.113.131.25v2.163"/><path d="M14.985 22.247c0 .141-.061.25-.131.25H12.39c-.072 0-.131-.109-.131-.25v-2.161c0-.137.059-.25.131-.25h2.464c.07 0 .131.113.131.25v2.161"/><path d="M19.28 22.247c0 .141-.057.25-.131.25h-2.463c-.07 0-.129-.109-.129-.25v-2.161c0-.137.059-.25.129-.25h2.463c.074 0 .131.113.131.25v2.161"/><path d="M23.608 22.247c0 .141-.059.25-.131.25h-2.461c-.072 0-.133-.109-.133-.25v-2.161c0-.137.061-.25.133-.25h2.461c.072 0 .131.113.131.25v2.161"/><path d="M6.377 22.247c0 .141-.061.25-.131.25H3.783c-.072 0-.131-.109-.131-.25v-2.161c0-.137.059-.25.131-.25h2.463c.07 0 .131.113.131.25v2.161"/><path d="M10.705 22.247c0 .141-.059.25-.131.25H8.11c-.07 0-.131-.109-.131-.25v-2.161c0-.137.061-.25.131-.25h2.464c.072 0 .131.113.131.25v2.161"/><path d="M27.905 22.247c0 .141-.059.25-.131.25H25.31c-.071 0-.129-.109-.129-.25v-2.161c0-.137.059-.25.129-.25h2.463c.072 0 .131.113.131.25v2.161"/><path d="M32.23 22.247c0 .141-.059.25-.133.25h-2.461c-.074 0-.129-.109-.129-.25v-2.161c0-.137.055-.25.129-.25h2.461c.074 0 .133.113.133.25v2.161"/><path d="M36.53 22.247c0 .141-.061.25-.131.25h-2.464c-.072 0-.131-.109-.131-.25v-2.161c0-.137.059-.25.131-.25h2.464c.07 0 .131.113.131.25v2.161"/><path d="M40.857 22.247c0 .141-.061.25-.133.25h-2.462c-.072 0-.133-.109-.133-.25v-2.161c0-.137.061-.25.133-.25h2.462c.072 0 .133.113.133.25v2.161"/><path d="M45.155 22.247c0 .141-.059.25-.133.25H42.56c-.074 0-.131-.109-.131-.25v-2.161c0-.137.057-.25.131-.25h2.462c.074 0 .133.113.133.25v2.161"/><path d="M49.73 22.247c0 .141-.061.25-.131.25h-2.463c-.072 0-.132-.109-.132-.25v-2.161c0-.137.06-.25.132-.25h2.463c.07 0 .131.113.131.25v2.161"/><path d="M50.809 26.48c0 .139-.059.25-.129.25h-4.464c-.072 0-.131-.111-.131-.25v-2.163c0-.137.059-.25.131-.25h4.464c.07 0 .129.113.129.25z"/><path d="M13.698 17.946c0 .139-.059.252-.131.252h-2.463c-.07 0-.131-.113-.131-.252v-2.163c0-.137.061-.25.131-.25h2.463c.072 0 .131.113.131.25v2.163"/><path d="M17.996 17.946c0 .139-.061.252-.133.252h-2.462c-.072 0-.133-.113-.133-.252v-2.163c0-.137.061-.25.133-.25h2.462c.072 0 .133.113.133.25v2.163"/><path d="M22.32 17.946c0 .139-.059.252-.129.252h-2.466c-.072 0-.129-.113-.129-.252v-2.163c0-.137.057-.25.129-.25h2.466c.07 0 .129.113.129.25v2.163"/><path d="M5.09 17.946c0 .139-.059.252-.131.252H2.495c-.072 0-.129-.113-.129-.252v-2.163c0-.137.057-.25.129-.25h2.464c.072 0 .131.113.131.25v2.163"/><path d="M9.415 17.946c0 .139-.057.252-.129.252H6.825c-.074 0-.133-.113-.133-.252v-2.163c0-.137.059-.25.133-.25h2.461c.072 0 .129.113.129.25v2.163"/><path d="M26.615 17.946c0 .139-.057.252-.127.252h-2.463c-.072 0-.131-.113-.131-.252v-2.163c0-.137.059-.25.131-.25h2.463c.07 0 .127.113.127.25v2.163"/><path d="M30.946 17.946c0 .139-.061.252-.131.252h-2.463c-.072 0-.131-.113-.131-.252v-2.163c0-.137.059-.25.131-.25h2.463c.07 0 .131.113.131.25v2.163"/><path d="M35.24 17.946c0 .139-.059.252-.133.252h-2.461c-.072 0-.133-.113-.133-.252v-2.163c0-.137.061-.25.133-.25h2.461c.074 0 .133.113.133.25v2.163"/><path d="M39.57 17.946c0 .139-.062.252-.132.252h-2.463c-.072 0-.131-.113-.131-.252v-2.163c0-.137.059-.25.131-.25h2.463c.07 0 .132.113.132.25v2.163"/><path d="M43.866 17.946c0 .139-.059.252-.131.252h-2.464c-.07 0-.131-.113-.131-.252v-2.163c0-.137.061-.25.131-.25h2.464c.072 0 .131.113.131.25v2.163"/><path d="M48.44 17.946c0 .139-.059.252-.131.252h-2.464c-.07 0-.129-.113-.129-.252v-2.163c0-.137.059-.25.129-.25h2.464c.072 0 .131.113.131.25v2.163"/><path d="M52.74 17.946c0 .139-.057.252-.131.252h-2.462c-.072 0-.133-.113-.133-.252v-2.163c0-.137.061-.25.133-.25h2.462c.074 0 .131.113.131.25v2.163"/><path d="M9.968 35.16c0 .142-.102.255-.227.255H6.462c-.127 0-.229-.113-.229-.255V33c0-.137.102-.25.229-.25h3.279c.125 0 .227.113.227.25z"/></g><path d="M58.67 53.679a5.227 5.227 0 0 1-7.268 1.33a5.227 5.227 0 0 1-1.329-7.268l4.253-6.157a5.223 5.223 0 0 1 7.266-1.329a5.222 5.222 0 0 1 1.331 7.266l-4.253 6.158" fill="#a6a8ab"/><path d="M62.75 41.34a5.209 5.209 0 0 0-1.153-1.084a5.223 5.223 0 0 0-7.266 1.329l-4.253 6.157a5.227 5.227 0 0 0 1.329 7.268c.574.395 1.199.66 1.84.801c.809-5.806 4.524-11.203 9.503-14.471" fill="#939292"/><g fill="#e6e7e8"><path d="M56.029 44.545c.588.211 1.176.227 1.762.145l2.884-4.175a4.862 4.862 0 0 0-6.156 1.593l-.463.668a3.652 3.652 0 0 0 1.973 1.769"/><path d="M59.33 46.821c-.404-.475-.627-1.02-.76-1.594l2.885-4.176a4.857 4.857 0 0 1 .69 6.318l-.462.67a3.654 3.654 0 0 1-2.353-1.218"/></g><path d="M57.885 46.534a.641.641 0 0 1-.895.162a.641.641 0 0 1-.164-.893l1.944-2.813a.643.643 0 0 1 1.057.731l-1.942 2.813" fill="#58595b"/><rect x="0" y="0" width="64" height="64" fill="rgba(0, 0, 0, 0)" /></svg>