<svg xmlns="http://www.w3.org/2000/svg" xmlns:xlink="http://www.w3.org/1999/xlink" width="24" height="24" preserveAspectRatio="xMidYMid meet" viewBox="0 0 24 24" style="-ms-transform: rotate(360deg); -webkit-transform: rotate(360deg); transform: rotate(360deg);"><path d="M10 10a1 1 0 1 0-1 1a1 1 0 0 0 1-1zm4.5 4.06a1 1 0 0 0-1.37.36a1.3 1.3 0 0 1-2.26 0a1 1 0 0 0-1.37-.36a1 1 0 0 0-.37 1.36a3.31 3.31 0 0 0 5.74 0a1 1 0 0 0-.37-1.36zM15 9a1 1 0 1 0 1 1a1 1 0 0 0-1-1zm-3-7a10 10 0 1 0 10 10A10 10 0 0 0 12 2zm0 18A8 8 0 0 1 9 4.57A3 3 0 0 0 9 5a3 3 0 0 0 3 3a1 1 0 0 0 0-2a1 1 0 0 1 0-2a8 8 0 0 1 0 16z" fill="#626262"/><rect x="0" y="0" width="24" height="24" fill="rgba(0, 0, 0, 0)" /></svg>