<svg id="svg" version="1.1" xmlns="http://www.w3.org/2000/svg" xmlns:xlink="http://www.w3.org/1999/xlink" width="400" height="316.74418604651163" viewBox="0, 0, 400,316.74418604651163"><g id="svgg"><path id="path0" d="M194.770 19.204 C 193.899 19.270,191.117 19.476,188.590 19.662 C 165.304 21.373,141.941 29.612,122.029 43.136 C 56.419 87.693,41.249 177.944,88.668 241.613 C 92.159 246.300,92.196 246.310,92.897 242.750 C 97.225 220.758,117.949 201.664,148.798 191.245 C 154.291 189.389,154.442 189.400,157.110 191.838 C 182.276 214.837,217.469 214.953,242.584 192.120 C 245.615 189.365,245.632 189.363,251.202 191.245 C 283.303 202.087,302.272 220.093,307.590 244.770 C 307.881 246.122,308.177 245.890,311.027 242.076 C 367.064 167.093,335.396 59.940,247.622 27.539 C 231.907 21.738,209.023 18.129,194.770 19.204 M206.181 69.245 C 254.200 76.111,271.838 143.754,234.851 179.196 C 202.500 210.197,152.631 188.535,145.933 140.571 C 140.340 100.524,171.010 64.215,206.181 69.245 " stroke="none" fill="#2c6494" fill-rule="evenodd"></path><path id="path1" d="M0.000 158.479 L 0.000 316.957 200.000 316.957 L 400.000 316.957 400.000 158.479 L 400.000 0.000 200.000 0.000 L 0.000 0.000 0.000 158.479 M211.471 18.232 C 321.254 27.359,378.388 154.342,312.404 242.562 C 307.422 249.223,306.948 249.347,306.065 244.216 C 302.246 222.048,281.906 202.990,250.885 192.512 C 245.662 190.748,246.249 190.645,242.423 194.004 C 218.130 215.328,184.772 215.992,159.588 195.652 C 157.845 194.244,155.999 192.649,155.487 192.108 C 154.288 190.842,154.008 190.860,149.115 192.513 C 119.102 202.653,98.302 221.628,94.294 242.524 C 93.422 247.071,93.349 247.313,92.757 247.670 C 90.511 249.026,76.315 226.654,70.374 212.396 C 30.046 115.608,107.113 9.557,211.471 18.232 M193.978 70.526 C 153.598 76.066,133.033 128.845,156.519 166.660 C 178.972 202.813,227.011 200.131,246.283 161.648 C 267.961 118.359,237.108 64.608,193.978 70.526 " stroke="none" fill="#f6f6f6" fill-rule="evenodd"></path><path id="path2" d="M195.800 18.620 C 198.110 18.675,201.890 18.675,204.200 18.620 C 206.510 18.566,204.620 18.522,200.000 18.522 C 195.380 18.522,193.490 18.566,195.800 18.620 M188.352 18.927 C 188.831 19.000,189.616 19.000,190.095 18.927 C 190.574 18.855,190.182 18.795,189.223 18.795 C 188.265 18.795,187.872 18.855,188.352 18.927 M209.905 18.927 C 210.384 19.000,211.169 19.000,211.648 18.927 C 212.128 18.855,211.735 18.795,210.777 18.795 C 209.818 18.795,209.426 18.855,209.905 18.927 M184.870 19.245 C 185.351 19.318,186.065 19.316,186.454 19.241 C 186.844 19.165,186.450 19.106,185.578 19.108 C 184.707 19.110,184.388 19.172,184.870 19.245 M213.713 19.245 C 214.195 19.318,214.908 19.316,215.298 19.241 C 215.687 19.165,215.293 19.106,214.422 19.108 C 213.550 19.110,213.231 19.172,213.713 19.245 M182.013 19.553 C 182.318 19.633,182.817 19.633,183.122 19.553 C 183.427 19.473,183.177 19.408,182.567 19.408 C 181.957 19.408,181.708 19.473,182.013 19.553 M216.878 19.553 C 217.183 19.633,217.682 19.633,217.987 19.553 C 218.292 19.473,218.043 19.408,217.433 19.408 C 216.823 19.408,216.573 19.473,216.878 19.553 M219.097 19.870 C 219.402 19.950,219.901 19.950,220.206 19.870 C 220.511 19.790,220.261 19.725,219.651 19.725 C 219.041 19.725,218.792 19.790,219.097 19.870 M169.889 21.553 C 169.262 21.754,169.229 21.807,169.731 21.807 C 170.079 21.807,170.721 21.693,171.157 21.553 C 171.784 21.352,171.817 21.299,171.315 21.299 C 170.967 21.299,170.325 21.414,169.889 21.553 M228.843 21.553 C 229.279 21.693,229.921 21.807,230.269 21.807 C 230.771 21.807,230.738 21.754,230.111 21.553 C 229.675 21.414,229.033 21.299,228.685 21.299 C 228.183 21.299,228.216 21.352,228.843 21.553 M233.122 22.525 C 234.342 22.854,235.479 23.080,235.648 23.028 C 236.004 22.918,231.927 21.856,231.314 21.899 C 231.088 21.914,231.902 22.196,233.122 22.525 M165.293 22.654 C 163.591 23.215,164.261 23.236,166.244 22.685 C 167.116 22.442,167.544 22.242,167.195 22.240 C 166.846 22.238,165.990 22.424,165.293 22.654 M161.173 23.772 C 160.773 23.943,160.715 24.044,161.014 24.044 C 161.276 24.044,161.775 23.922,162.124 23.772 C 162.523 23.600,162.582 23.499,162.282 23.499 C 162.021 23.499,161.521 23.622,161.173 23.772 M237.876 23.772 C 238.225 23.922,238.724 24.044,238.986 24.044 C 239.285 24.044,239.227 23.943,238.827 23.772 C 238.479 23.622,237.979 23.499,237.718 23.499 C 237.418 23.499,237.477 23.600,237.876 23.772 M240.571 24.564 C 241.181 24.799,241.894 24.991,242.155 24.991 C 242.417 24.991,242.132 24.799,241.521 24.564 C 240.911 24.329,240.198 24.137,239.937 24.137 C 239.675 24.137,239.960 24.329,240.571 24.564 M158.003 24.723 C 157.604 24.894,157.545 24.995,157.845 24.995 C 158.106 24.995,158.605 24.872,158.954 24.723 C 159.354 24.551,159.412 24.450,159.113 24.450 C 158.851 24.450,158.352 24.573,158.003 24.723 M153.467 26.207 C 152.715 26.473,152.156 26.746,152.224 26.815 C 152.369 26.960,155.309 25.994,155.309 25.802 C 155.309 25.604,154.948 25.683,153.467 26.207 M245.483 26.113 C 246.006 26.351,246.791 26.634,247.227 26.740 C 247.863 26.897,247.832 26.850,247.068 26.502 C 246.545 26.264,245.761 25.981,245.325 25.874 C 244.688 25.718,244.720 25.765,245.483 26.113 M249.445 27.522 C 249.707 27.683,250.277 27.911,250.713 28.028 C 251.264 28.175,251.361 28.150,251.030 27.946 C 250.769 27.784,250.198 27.557,249.762 27.440 C 249.212 27.293,249.115 27.318,249.445 27.522 M252.298 28.685 C 252.734 28.934,253.233 29.138,253.407 29.138 C 253.582 29.138,253.368 28.934,252.932 28.685 C 252.496 28.435,251.997 28.232,251.823 28.232 C 251.648 28.232,251.862 28.435,252.298 28.685 M144.849 29.635 C 144.414 29.885,144.200 30.088,144.374 30.088 C 144.548 30.088,145.048 29.885,145.483 29.635 C 145.919 29.386,146.133 29.183,145.959 29.183 C 145.784 29.183,145.285 29.386,144.849 29.635 M254.517 29.635 C 254.952 29.885,255.452 30.088,255.626 30.088 C 255.800 30.088,255.586 29.885,255.151 29.635 C 254.715 29.386,254.216 29.183,254.041 29.183 C 253.867 29.183,254.081 29.386,254.517 29.635 M142.314 30.745 C 141.704 31.079,141.347 31.352,141.521 31.352 C 141.696 31.352,142.338 31.079,142.948 30.745 C 143.558 30.411,143.914 30.138,143.740 30.138 C 143.566 30.138,142.924 30.411,142.314 30.745 M256.735 30.586 C 257.171 30.836,257.670 31.039,257.845 31.039 C 258.019 31.039,257.805 30.836,257.369 30.586 C 256.933 30.337,256.434 30.133,256.260 30.133 C 256.086 30.133,256.300 30.337,256.735 30.586 M259.614 31.818 C 259.937 32.115,265.610 34.855,265.610 34.713 C 265.610 34.537,260.045 31.696,259.700 31.696 C 259.580 31.696,259.542 31.751,259.614 31.818 M137.163 33.142 C 135.987 33.746,135.024 34.311,135.024 34.398 C 135.024 34.540,139.430 32.430,139.752 32.134 C 140.185 31.736,139.015 32.191,137.163 33.142 M132.726 35.521 C 132.072 35.866,131.537 36.219,131.537 36.306 C 131.537 36.392,132.108 36.172,132.805 35.816 C 133.502 35.460,134.073 35.101,134.073 35.017 C 134.073 34.810,134.071 34.811,132.726 35.521 M266.719 35.400 C 266.894 35.577,267.892 36.192,268.938 36.767 C 269.984 37.342,270.697 37.665,270.523 37.483 C 270.349 37.302,269.350 36.687,268.304 36.117 C 267.258 35.546,266.545 35.224,266.719 35.400 M130.190 36.948 C 129.005 37.591,129.077 37.859,130.269 37.242 C 130.792 36.972,131.220 36.683,131.220 36.600 C 131.220 36.396,131.186 36.408,130.190 36.948 M126.228 39.339 C 125.148 40.031,124.798 40.496,125.753 39.971 C 126.480 39.571,127.619 38.690,127.417 38.684 C 127.330 38.682,126.795 38.976,126.228 39.339 M272.742 38.884 C 272.916 39.059,274.556 40.169,276.387 41.351 C 286.287 47.746,296.266 56.451,305.830 67.036 L 307.835 69.255 306.141 67.195 C 301.136 61.106,291.182 51.773,283.835 46.282 C 278.845 42.552,271.535 37.678,272.742 38.884 M122.580 41.687 C 121.405 42.475,120.444 43.189,120.444 43.274 C 120.444 43.359,121.442 42.764,122.662 41.953 C 124.604 40.662,125.117 40.254,124.799 40.254 C 124.753 40.254,123.755 40.898,122.580 41.687 M116.323 46.167 C 106.839 53.298,97.871 62.032,90.341 71.474 C 87.755 74.716,87.691 74.802,87.866 74.802 C 87.946 74.802,88.997 73.554,90.202 72.029 C 97.828 62.374,107.093 53.343,116.688 46.212 C 119.703 43.971,120.371 43.417,120.048 43.425 C 120.004 43.426,118.328 44.660,116.323 46.167 M197.861 69.649 C 199.037 69.710,200.963 69.710,202.139 69.649 C 203.316 69.588,202.353 69.538,200.000 69.538 C 197.647 69.538,196.684 69.588,197.861 69.649 M310.079 72.351 C 311.409 74.054,312.937 76.086,313.474 76.868 C 314.012 77.649,314.526 78.288,314.617 78.288 C 314.959 78.288,309.070 70.417,308.177 69.681 C 307.893 69.447,308.749 70.648,310.079 72.351 M193.423 69.949 C 193.728 70.029,194.227 70.029,194.532 69.949 C 194.838 69.869,194.588 69.804,193.978 69.804 C 193.368 69.804,193.118 69.869,193.423 69.949 M205.468 69.949 C 205.773 70.029,206.272 70.029,206.577 69.949 C 206.882 69.869,206.632 69.804,206.022 69.804 C 205.412 69.804,205.162 69.869,205.468 69.949 M178.368 74.505 C 177.017 75.195,175.911 75.832,175.911 75.919 C 175.911 76.060,180.951 73.635,181.273 73.339 C 181.722 72.925,180.490 73.420,178.368 74.505 M219.651 73.851 C 220.261 74.185,220.903 74.458,221.078 74.458 C 221.252 74.458,220.895 74.185,220.285 73.851 C 219.675 73.517,219.033 73.244,218.859 73.244 C 218.685 73.244,219.041 73.517,219.651 73.851 M221.553 74.633 C 221.553 74.720,222.266 75.153,223.138 75.594 C 224.010 76.036,224.723 76.326,224.723 76.239 C 224.723 76.152,224.010 75.719,223.138 75.277 C 222.266 74.836,221.553 74.546,221.553 74.633 M86.787 76.149 C 85.502 77.871,84.500 79.426,85.001 78.922 C 85.646 78.272,87.887 75.119,87.703 75.119 C 87.622 75.119,87.210 75.582,86.787 76.149 M173.425 77.331 C 172.352 78.024,171.474 78.663,171.474 78.750 C 171.474 78.892,175.175 76.595,175.548 76.221 C 175.997 75.772,175.155 76.212,173.425 77.331 M225.407 76.765 C 225.697 76.993,227.266 78.106,228.894 79.239 C 230.553 80.394,233.596 83.037,235.816 85.251 C 237.995 87.424,239.003 88.301,238.055 87.200 C 235.773 84.548,231.958 81.111,228.749 78.817 C 226.356 77.107,224.006 75.664,225.407 76.765 M316.209 80.824 C 317.020 82.044,317.743 83.043,317.815 83.043 C 317.983 83.043,317.748 82.648,316.256 80.428 C 315.583 79.426,314.965 78.605,314.883 78.605 C 314.801 78.605,315.397 79.604,316.209 80.824 M169.877 79.896 L 168.780 80.870 169.968 80.017 C 171.019 79.263,171.360 78.922,171.066 78.922 C 171.016 78.922,170.481 79.361,169.877 79.896 M164.903 84.231 C 163.008 86.105,160.985 88.281,160.408 89.065 C 159.543 90.239,159.624 90.183,160.866 88.748 C 161.696 87.789,163.810 85.614,165.564 83.914 C 167.318 82.215,168.662 80.824,168.551 80.824 C 168.439 80.824,166.798 82.357,164.903 84.231 M82.213 82.805 C 81.122 84.656,81.051 84.814,81.606 84.152 C 82.250 83.385,82.805 82.409,82.597 82.409 C 82.514 82.409,82.341 82.587,82.213 82.805 M318.184 83.835 C 318.355 84.184,318.728 84.754,319.012 85.103 L 319.528 85.737 319.217 85.103 C 319.045 84.754,318.673 84.184,318.389 83.835 L 317.873 83.201 318.184 83.835 M79.778 86.767 C 78.419 89.033,77.908 90.016,78.089 90.016 C 78.165 90.016,78.690 89.196,79.255 88.193 C 79.820 87.191,80.492 86.050,80.748 85.658 C 81.004 85.265,81.137 84.945,81.042 84.945 C 80.947 84.945,80.378 85.765,79.778 86.767 M320.919 88.431 C 321.190 88.954,321.482 89.382,321.569 89.382 C 321.657 89.382,321.507 88.954,321.236 88.431 C 320.966 87.908,320.673 87.480,320.586 87.480 C 320.499 87.480,320.649 87.908,320.919 88.431 M240.864 91.046 C 241.616 92.048,242.295 92.868,242.372 92.868 C 242.588 92.868,240.503 90.036,239.969 89.605 C 239.709 89.395,240.112 90.044,240.864 91.046 M322.345 90.967 C 322.701 91.664,323.064 92.235,323.151 92.235 C 323.238 92.235,323.018 91.664,322.662 90.967 C 322.307 90.269,321.944 89.699,321.857 89.699 C 321.770 89.699,321.990 90.269,322.345 90.967 M77.021 91.601 C 76.665 92.298,76.445 92.868,76.532 92.868 C 76.619 92.868,76.982 92.298,77.338 91.601 C 77.693 90.903,77.913 90.333,77.826 90.333 C 77.739 90.333,77.376 90.903,77.021 91.601 M158.733 91.204 C 158.241 91.775,155.941 95.189,155.476 96.038 C 154.907 97.079,155.912 95.777,157.619 93.265 C 159.360 90.700,159.685 90.099,158.733 91.204 M324.789 95.551 C 325.433 96.853,326.012 97.866,326.075 97.803 C 326.216 97.661,323.982 93.185,323.770 93.185 C 323.687 93.185,324.145 94.250,324.789 95.551 M243.382 94.612 C 243.554 94.960,243.926 95.531,244.210 95.880 L 244.726 96.513 244.415 95.880 C 244.244 95.531,243.871 94.960,243.587 94.612 L 243.071 93.978 243.382 94.612 M154.517 97.623 C 154.246 98.146,154.096 98.574,154.183 98.574 C 154.271 98.574,154.563 98.146,154.834 97.623 C 155.104 97.100,155.254 96.672,155.167 96.672 C 155.080 96.672,154.787 97.100,154.517 97.623 M245.166 97.623 C 245.437 98.146,245.729 98.574,245.817 98.574 C 245.904 98.574,245.754 98.146,245.483 97.623 C 245.213 97.100,244.920 96.672,244.833 96.672 C 244.746 96.672,244.896 97.100,245.166 97.623 M72.960 99.698 C 72.005 101.664,72.112 101.939,73.095 100.048 C 73.535 99.203,73.840 98.457,73.774 98.391 C 73.708 98.325,73.341 98.913,72.960 99.698 M326.809 99.683 C 326.809 99.857,327.083 100.499,327.417 101.109 C 327.751 101.719,328.024 102.076,328.024 101.902 C 328.024 101.727,327.751 101.086,327.417 100.475 C 327.083 99.865,326.809 99.509,326.809 99.683 M247.130 101.264 C 247.420 101.872,247.713 102.313,247.782 102.244 C 247.927 102.099,246.965 100.158,246.748 100.158 C 246.668 100.158,246.840 100.656,247.130 101.264 M71.684 102.549 C 71.153 103.715,71.254 103.963,71.828 102.904 C 72.096 102.409,72.257 101.945,72.184 101.872 C 72.112 101.800,71.886 102.104,71.684 102.549 M328.073 102.536 C 328.073 102.710,328.277 103.209,328.526 103.645 C 328.775 104.081,328.979 104.295,328.979 104.120 C 328.979 103.946,328.775 103.447,328.526 103.011 C 328.277 102.575,328.073 102.361,328.073 102.536 M151.557 103.500 C 151.026 104.666,151.127 104.914,151.702 103.855 C 151.970 103.360,152.130 102.896,152.057 102.823 C 151.985 102.751,151.760 103.055,151.557 103.500 M70.733 104.768 C 70.202 105.933,70.303 106.182,70.877 105.123 C 71.146 104.628,71.306 104.164,71.233 104.091 C 71.161 104.019,70.936 104.323,70.733 104.768 M149.322 109.394 C 148.954 110.484,148.664 111.526,148.677 111.710 C 148.690 111.894,149.045 111.057,149.467 109.850 C 149.888 108.643,150.179 107.601,150.112 107.534 C 150.045 107.468,149.690 108.304,149.322 109.394 M69.132 108.752 C 68.937 109.312,68.832 109.825,68.900 109.893 C 68.968 109.961,69.183 109.558,69.378 108.998 C 69.574 108.438,69.678 107.924,69.610 107.856 C 69.542 107.789,69.327 108.191,69.132 108.752 M331.336 110.777 C 332.040 113.077,334.029 118.641,334.049 118.369 C 334.081 117.930,331.607 110.579,331.345 110.333 C 331.233 110.228,331.229 110.428,331.336 110.777 M67.228 114.165 C 66.687 115.789,66.255 117.260,66.268 117.433 C 66.281 117.607,66.779 116.334,67.374 114.603 C 67.969 112.872,68.401 111.401,68.334 111.334 C 68.266 111.267,67.769 112.541,67.228 114.165 M148.200 113.018 C 148.084 113.482,148.049 113.924,148.124 113.998 C 148.199 114.073,148.355 113.754,148.472 113.290 C 148.588 112.825,148.623 112.384,148.548 112.309 C 148.473 112.234,148.317 112.553,148.200 113.018 M65.791 118.723 C 65.675 119.188,65.640 119.629,65.715 119.704 C 65.790 119.778,65.946 119.459,66.063 118.995 C 66.180 118.530,66.214 118.089,66.139 118.014 C 66.064 117.940,65.908 118.259,65.791 118.723 M334.117 119.176 C 334.117 119.437,334.240 119.937,334.390 120.285 C 334.562 120.685,334.662 120.743,334.662 120.444 C 334.662 120.182,334.540 119.683,334.390 119.334 C 334.218 118.935,334.117 118.876,334.117 119.176 M65.157 120.942 C 65.041 121.406,65.007 121.847,65.081 121.922 C 65.156 121.997,65.312 121.678,65.429 121.213 C 65.546 120.749,65.580 120.308,65.505 120.233 C 65.430 120.158,65.274 120.477,65.157 120.942 M253.322 122.029 C 253.322 122.639,253.388 122.888,253.467 122.583 C 253.547 122.278,253.547 121.779,253.467 121.474 C 253.388 121.169,253.322 121.418,253.322 122.029 M146.508 122.345 C 146.508 122.956,146.573 123.205,146.653 122.900 C 146.732 122.595,146.732 122.096,146.653 121.791 C 146.573 121.486,146.508 121.735,146.508 122.345 M253.646 124.723 C 253.649 125.420,253.714 125.668,253.790 125.274 C 253.866 124.879,253.863 124.309,253.784 124.006 C 253.704 123.703,253.642 124.025,253.646 124.723 M146.204 125.198 C 146.204 125.983,146.265 126.303,146.341 125.911 C 146.417 125.519,146.417 124.877,146.341 124.485 C 146.265 124.093,146.204 124.414,146.204 125.198 M63.568 127.276 C 63.448 127.912,63.414 128.496,63.491 128.573 C 63.569 128.651,63.730 128.194,63.849 127.558 C 63.969 126.922,64.003 126.338,63.925 126.260 C 63.848 126.183,63.687 126.640,63.568 127.276 M254.007 131.220 C 254.007 133.574,254.057 134.536,254.118 133.360 C 254.179 132.183,254.179 130.258,254.118 129.081 C 254.057 127.904,254.007 128.867,254.007 131.220 M145.920 131.220 C 145.920 133.225,145.972 134.045,146.035 133.043 C 146.097 132.040,146.097 130.400,146.035 129.398 C 145.972 128.395,145.920 129.216,145.920 131.220 M61.880 136.609 C 61.880 137.219,61.945 137.468,62.025 137.163 C 62.105 136.858,62.105 136.359,62.025 136.054 C 61.945 135.749,61.880 135.998,61.880 136.609 M146.204 137.242 C 146.204 138.027,146.265 138.348,146.341 137.956 C 146.417 137.563,146.417 136.922,146.341 136.529 C 146.265 136.137,146.204 136.458,146.204 137.242 M253.646 137.718 C 253.649 138.415,253.714 138.663,253.790 138.269 C 253.866 137.875,253.863 137.304,253.784 137.001 C 253.704 136.698,253.642 137.021,253.646 137.718 M338.267 138.510 C 338.267 139.120,338.332 139.370,338.412 139.065 C 338.492 138.760,338.492 138.261,338.412 137.956 C 338.332 137.651,338.267 137.900,338.267 138.510 M61.563 138.827 C 61.563 139.437,61.628 139.687,61.708 139.382 C 61.788 139.077,61.788 138.578,61.708 138.273 C 61.628 137.968,61.563 138.217,61.563 138.827 M146.508 140.095 C 146.508 140.705,146.573 140.955,146.653 140.650 C 146.732 140.345,146.732 139.845,146.653 139.540 C 146.573 139.235,146.508 139.485,146.508 140.095 M253.322 140.412 C 253.322 141.022,253.388 141.272,253.467 140.967 C 253.547 140.662,253.547 140.162,253.467 139.857 C 253.388 139.552,253.322 139.802,253.322 140.412 M338.590 140.887 C 338.594 141.585,338.659 141.833,338.734 141.438 C 338.810 141.044,338.807 140.474,338.728 140.171 C 338.649 139.868,338.587 140.190,338.590 140.887 M61.246 141.046 C 61.246 141.656,61.312 141.906,61.391 141.601 C 61.471 141.296,61.471 140.796,61.391 140.491 C 61.312 140.186,61.246 140.436,61.246 141.046 M60.946 144.057 C 60.949 144.929,61.010 145.248,61.083 144.766 C 61.156 144.284,61.154 143.571,61.079 143.181 C 61.004 142.791,60.944 143.185,60.946 144.057 M338.914 143.899 C 338.914 144.683,338.975 145.004,339.051 144.612 C 339.126 144.219,339.126 143.578,339.051 143.185 C 338.975 142.793,338.914 143.114,338.914 143.899 M339.235 147.544 C 339.237 148.415,339.299 148.734,339.372 148.252 C 339.445 147.771,339.443 147.057,339.367 146.668 C 339.292 146.278,339.232 146.672,339.235 147.544 M60.634 148.019 C 60.634 148.978,60.693 149.370,60.766 148.891 C 60.838 148.411,60.838 147.627,60.766 147.147 C 60.693 146.668,60.634 147.060,60.634 148.019 M148.064 148.653 C 148.064 148.914,148.186 149.414,148.336 149.762 C 148.508 150.162,148.608 150.220,148.608 149.921 C 148.608 149.659,148.486 149.160,148.336 148.811 C 148.164 148.412,148.064 148.353,148.064 148.653 M339.577 152.932 C 339.578 154.675,339.631 155.348,339.695 154.427 C 339.759 153.506,339.759 152.079,339.694 151.257 C 339.629 150.435,339.576 151.189,339.577 152.932 M60.360 158.320 C 60.360 162.853,60.405 164.663,60.459 162.343 C 60.513 160.023,60.513 156.314,60.459 154.102 C 60.404 151.889,60.360 153.788,60.360 158.320 M148.677 150.731 C 148.643 151.206,149.966 155.053,150.112 154.906 C 150.179 154.840,149.888 153.798,149.467 152.591 C 149.045 151.384,148.690 150.547,148.677 150.731 M151.211 158.003 C 151.211 158.177,151.415 158.677,151.664 159.113 C 151.913 159.548,152.117 159.762,152.117 159.588 C 152.117 159.414,151.913 158.914,151.664 158.479 C 151.415 158.043,151.211 157.829,151.211 158.003 M339.577 163.708 C 339.578 165.452,339.631 166.124,339.695 165.203 C 339.759 164.282,339.759 162.856,339.694 162.034 C 339.629 161.212,339.576 161.965,339.577 163.708 M154.358 164.501 C 154.714 165.198,155.076 165.769,155.163 165.769 C 155.251 165.769,155.031 165.198,154.675 164.501 C 154.319 163.803,153.957 163.233,153.870 163.233 C 153.783 163.233,154.002 163.803,154.358 164.501 M245.166 164.818 C 244.896 165.341,244.746 165.769,244.833 165.769 C 244.920 165.769,245.213 165.341,245.483 164.818 C 245.754 164.295,245.904 163.867,245.817 163.867 C 245.729 163.867,245.437 164.295,245.166 164.818 M155.477 166.403 C 156.098 167.533,158.813 171.447,159.100 171.624 C 159.272 171.731,158.610 170.636,157.628 169.190 C 155.916 166.669,154.902 165.355,155.477 166.403 M244.178 166.482 C 243.087 168.333,243.016 168.491,243.571 167.829 C 244.215 167.062,244.770 166.086,244.562 166.086 C 244.479 166.086,244.306 166.264,244.178 166.482 M60.634 168.621 C 60.634 169.580,60.693 169.972,60.766 169.493 C 60.838 169.013,60.838 168.229,60.766 167.750 C 60.693 167.270,60.634 167.662,60.634 168.621 M339.235 169.097 C 339.237 169.968,339.299 170.287,339.372 169.805 C 339.445 169.324,339.443 168.611,339.367 168.221 C 339.292 167.831,339.232 168.225,339.235 169.097 M240.002 172.504 C 238.739 174.116,238.343 174.735,239.122 173.879 C 240.486 172.378,242.625 169.572,242.405 169.572 C 242.346 169.572,241.264 170.891,240.002 172.504 M60.946 172.583 C 60.949 173.455,61.010 173.774,61.083 173.292 C 61.156 172.810,61.154 172.097,61.079 171.707 C 61.004 171.317,60.944 171.712,60.946 172.583 M338.914 172.742 C 338.914 173.526,338.975 173.847,339.051 173.455 C 339.126 173.063,339.126 172.421,339.051 172.029 C 338.975 171.636,338.914 171.957,338.914 172.742 M160.319 173.296 C 160.837 173.950,161.591 174.770,161.993 175.119 C 162.396 175.468,162.028 174.933,161.175 173.930 C 159.440 171.889,158.867 171.465,160.319 173.296 M61.246 175.594 C 61.246 176.204,61.312 176.454,61.391 176.149 C 61.471 175.844,61.471 175.345,61.391 175.040 C 61.312 174.735,61.246 174.984,61.246 175.594 M338.590 175.753 C 338.594 176.450,338.659 176.698,338.734 176.304 C 338.810 175.909,338.807 175.339,338.728 175.036 C 338.649 174.733,338.587 175.055,338.590 175.753 M236.589 176.586 C 234.632 178.670,230.184 182.373,227.432 184.209 C 224.240 186.338,223.610 186.848,225.515 185.763 C 228.752 183.919,238.627 175.689,237.698 175.609 C 237.600 175.601,237.101 176.041,236.589 176.586 M163.391 176.832 C 164.444 177.984,168.621 181.756,168.621 181.554 C 168.621 181.484,167.231 180.158,165.531 178.608 C 163.831 177.059,162.868 176.259,163.391 176.832 M61.563 177.813 C 61.563 178.423,61.628 178.673,61.708 178.368 C 61.788 178.063,61.788 177.563,61.708 177.258 C 61.628 176.953,61.563 177.203,61.563 177.813 M338.267 178.130 C 338.267 178.740,338.332 178.990,338.412 178.685 C 338.492 178.380,338.492 177.880,338.412 177.575 C 338.332 177.270,338.267 177.520,338.267 178.130 M61.880 180.032 C 61.880 180.642,61.945 180.891,62.025 180.586 C 62.105 180.281,62.105 179.782,62.025 179.477 C 61.945 179.172,61.880 179.422,61.880 180.032 M169.052 181.861 C 169.303 182.267,171.157 183.639,171.157 183.419 C 171.157 183.341,170.633 182.877,169.993 182.389 C 169.353 181.901,168.930 181.663,169.052 181.861 M171.687 183.861 C 172.080 184.337,174.010 185.550,174.010 185.322 C 174.010 185.248,173.403 184.787,172.662 184.299 C 171.922 183.810,171.483 183.613,171.687 183.861 M175.911 186.528 C 175.911 186.740,180.387 188.974,180.528 188.832 C 180.592 188.769,179.579 188.191,178.277 187.547 C 176.976 186.903,175.911 186.444,175.911 186.528 M222.742 187.026 C 222.088 187.371,221.553 187.725,221.553 187.811 C 221.553 187.898,222.124 187.677,222.821 187.322 C 223.518 186.966,224.089 186.606,224.089 186.523 C 224.089 186.316,224.087 186.316,222.742 187.026 M219.651 188.590 C 219.041 188.924,218.685 189.197,218.859 189.197 C 219.033 189.197,219.675 188.924,220.285 188.590 C 220.895 188.256,221.252 187.982,221.078 187.982 C 220.903 187.982,220.261 188.256,219.651 188.590 M155.871 191.824 C 158.758 194.392,159.283 194.751,157.068 192.642 C 155.839 191.471,154.730 190.508,154.603 190.502 C 154.476 190.496,155.047 191.091,155.871 191.824 M242.162 193.222 C 240.509 194.698,237.893 196.791,236.348 197.874 C 232.823 200.344,232.210 200.831,233.544 200.102 C 235.934 198.794,246.289 190.435,245.420 190.514 C 245.280 190.527,243.814 191.745,242.162 193.222 M149.445 191.589 C 148.221 192.150,148.791 192.158,150.238 191.601 C 150.848 191.366,151.133 191.169,150.872 191.164 C 150.610 191.158,149.968 191.350,149.445 191.589 M250.371 191.781 C 251.316 192.117,252.143 192.336,252.210 192.269 C 252.358 192.121,249.471 191.116,248.993 191.148 C 248.806 191.161,249.426 191.446,250.371 191.781 M193.585 192.617 C 193.980 192.693,194.550 192.690,194.853 192.611 C 195.156 192.531,194.834 192.469,194.136 192.473 C 193.439 192.476,193.191 192.541,193.585 192.617 M205.313 192.617 C 205.707 192.693,206.278 192.690,206.581 192.611 C 206.884 192.531,206.561 192.469,205.864 192.473 C 205.166 192.476,204.918 192.541,205.313 192.617 M197.861 192.945 C 199.037 193.006,200.963 193.006,202.139 192.945 C 203.316 192.884,202.353 192.834,200.000 192.834 C 197.647 192.834,196.684 192.884,197.861 192.945 M254.834 193.290 C 255.095 193.452,255.666 193.680,256.101 193.796 C 256.652 193.943,256.749 193.918,256.418 193.714 C 256.157 193.553,255.586 193.325,255.151 193.209 C 254.600 193.061,254.503 193.086,254.834 193.290 M65.021 194.929 C 65.021 195.190,65.143 195.689,65.293 196.038 C 65.465 196.438,65.566 196.496,65.566 196.197 C 65.566 195.935,65.443 195.436,65.293 195.087 C 65.121 194.688,65.021 194.629,65.021 194.929 M259.271 195.087 C 259.707 195.336,260.206 195.540,260.380 195.540 C 260.555 195.540,260.341 195.336,259.905 195.087 C 259.469 194.838,258.970 194.634,258.796 194.634 C 258.621 194.634,258.835 194.838,259.271 195.087 M137.559 196.197 C 136.949 196.531,136.593 196.804,136.767 196.804 C 136.941 196.804,137.583 196.531,138.193 196.197 C 138.803 195.862,139.160 195.589,138.986 195.589 C 138.811 195.589,138.170 195.862,137.559 196.197 M261.490 196.038 C 261.926 196.287,262.425 196.491,262.599 196.491 C 262.773 196.491,262.559 196.287,262.124 196.038 C 261.688 195.789,261.189 195.585,261.014 195.585 C 260.840 195.585,261.054 195.789,261.490 196.038 M334.254 196.695 C 334.137 197.159,334.103 197.600,334.178 197.675 C 334.253 197.750,334.409 197.431,334.526 196.966 C 334.642 196.502,334.677 196.061,334.602 195.986 C 334.527 195.911,334.371 196.230,334.254 196.695 M161.445 196.441 C 161.696 196.847,163.550 198.219,163.550 197.999 C 163.550 197.921,163.026 197.457,162.386 196.969 C 161.746 196.481,161.323 196.243,161.445 196.441 M65.655 197.147 C 65.655 197.409,65.777 197.908,65.927 198.257 C 66.099 198.656,66.200 198.715,66.200 198.415 C 66.200 198.154,66.077 197.655,65.927 197.306 C 65.755 196.906,65.655 196.848,65.655 197.147 M264.369 197.269 C 264.691 197.566,269.731 199.990,269.731 199.849 C 269.731 199.672,264.800 197.147,264.455 197.147 C 264.335 197.147,264.296 197.202,264.369 197.269 M132.726 198.436 C 131.723 198.953,130.903 199.447,130.903 199.534 C 130.903 199.676,134.675 197.880,134.997 197.585 C 135.412 197.205,134.309 197.618,132.726 198.436 M164.080 198.441 C 164.473 198.917,166.403 200.130,166.403 199.902 C 166.403 199.828,165.796 199.367,165.055 198.879 C 164.315 198.390,163.876 198.193,164.080 198.441 M332.563 202.135 C 331.833 204.339,331.289 206.196,331.354 206.261 C 331.418 206.326,332.072 204.578,332.805 202.377 C 333.539 200.176,334.083 198.319,334.014 198.251 C 333.946 198.182,333.293 199.930,332.563 202.135 M66.268 199.207 C 66.233 199.671,68.190 205.450,68.334 205.306 C 68.401 205.239,67.969 203.768,67.374 202.037 C 66.779 200.307,66.281 199.033,66.268 199.207 M167.195 200.472 C 167.903 201.061,169.911 202.146,169.414 201.672 C 169.239 201.505,168.526 201.049,167.829 200.657 C 167.132 200.266,166.846 200.183,167.195 200.472 M128.288 200.815 C 127.104 201.458,127.176 201.726,128.368 201.109 C 128.891 200.839,129.319 200.550,129.319 200.467 C 129.319 200.263,129.284 200.275,128.288 200.815 M270.681 200.459 C 270.681 200.546,271.109 200.839,271.632 201.109 C 272.155 201.380,272.583 201.530,272.583 201.443 C 272.583 201.355,272.155 201.063,271.632 200.792 C 271.109 200.522,270.681 200.372,270.681 200.459 M231.300 201.132 C 230.115 201.775,230.187 202.043,231.379 201.426 C 231.902 201.156,232.330 200.867,232.330 200.784 C 232.330 200.580,232.296 200.592,231.300 201.132 M273.059 201.815 C 273.233 201.981,273.946 202.438,274.643 202.829 C 275.341 203.221,275.626 203.304,275.277 203.014 C 274.569 202.426,272.561 201.340,273.059 201.815 M169.889 202.059 C 169.889 202.271,174.365 204.504,174.506 204.363 C 174.569 204.300,173.556 203.722,172.255 203.078 C 170.954 202.434,169.889 201.975,169.889 202.059 M227.575 203.170 C 226.268 203.850,225.309 204.413,225.444 204.422 C 225.781 204.443,230.111 202.249,230.111 202.056 C 230.111 201.842,230.215 201.796,227.575 203.170 M122.104 204.604 C 121.191 205.219,120.444 205.791,120.444 205.875 C 120.444 205.960,121.228 205.508,122.187 204.871 C 123.710 203.860,124.158 203.487,123.847 203.487 C 123.801 203.487,123.016 203.990,122.104 204.604 M276.070 203.580 C 276.070 203.652,277.068 204.374,278.288 205.186 C 279.509 205.997,280.507 206.594,280.507 206.512 C 280.507 206.430,279.687 205.812,278.685 205.138 C 276.465 203.647,276.070 203.411,276.070 203.580 M118.463 207.142 C 117.635 207.750,116.957 208.317,116.957 208.402 C 116.957 208.487,117.670 208.044,118.542 207.418 C 119.897 206.445,120.383 205.997,120.048 206.030 C 120.004 206.034,119.291 206.535,118.463 207.142 M219.176 206.683 C 218.304 207.019,218.003 207.215,218.507 207.117 C 219.504 206.923,221.592 206.075,221.078 206.073 C 220.903 206.072,220.048 206.347,219.176 206.683 M180.507 206.826 C 181.030 207.065,181.672 207.257,181.933 207.252 C 182.195 207.246,181.910 207.050,181.300 206.815 C 179.852 206.257,179.283 206.266,180.507 206.826 M68.961 207.290 C 69.078 207.726,69.306 208.296,69.467 208.558 C 69.671 208.888,69.696 208.792,69.549 208.241 C 69.432 207.805,69.205 207.235,69.043 206.973 C 68.839 206.643,68.814 206.739,68.961 207.290 M280.824 206.757 C 280.824 206.834,281.644 207.512,282.647 208.265 C 283.649 209.017,284.297 209.419,284.087 209.159 C 283.657 208.626,280.824 206.540,280.824 206.757 M113.946 210.722 C 112.552 211.912,111.197 213.157,110.935 213.489 C 110.674 213.821,111.458 213.217,112.678 212.148 C 113.899 211.078,115.325 209.837,115.848 209.390 C 116.371 208.943,116.727 208.573,116.640 208.568 C 116.553 208.562,115.341 209.532,113.946 210.722 M207.686 209.410 C 207.991 209.490,208.490 209.490,208.796 209.410 C 209.101 209.331,208.851 209.265,208.241 209.265 C 207.631 209.265,207.381 209.331,207.686 209.410 M194.378 209.736 C 194.860 209.809,195.573 209.807,195.963 209.732 C 196.353 209.657,195.959 209.597,195.087 209.599 C 194.216 209.602,193.897 209.663,194.378 209.736 M204.358 209.732 C 204.750 209.808,205.392 209.808,205.784 209.732 C 206.177 209.657,205.856 209.595,205.071 209.595 C 204.287 209.595,203.966 209.657,204.358 209.732 M286.836 211.537 C 287.975 212.566,290.319 214.848,292.045 216.609 C 294.543 219.156,294.779 219.344,293.203 217.530 C 291.488 215.555,287.421 211.711,285.410 210.163 C 285.055 209.890,285.697 210.509,286.836 211.537 M198.811 210.057 C 199.465 210.125,200.535 210.125,201.189 210.057 C 201.842 209.988,201.307 209.932,200.000 209.932 C 198.693 209.932,198.158 209.988,198.811 210.057 M70.387 210.935 C 70.387 211.109,70.591 211.609,70.840 212.044 C 71.089 212.480,71.293 212.694,71.293 212.520 C 71.293 212.345,71.089 211.846,70.840 211.410 C 70.591 210.975,70.387 210.761,70.387 210.935 M328.419 213.167 C 327.888 214.333,327.989 214.581,328.564 213.522 C 328.832 213.027,328.992 212.563,328.919 212.490 C 328.847 212.418,328.622 212.723,328.419 213.167 M71.338 213.154 C 71.338 213.328,71.542 213.827,71.791 214.263 C 72.040 214.699,72.244 214.913,72.244 214.739 C 72.244 214.564,72.040 214.065,71.791 213.629 C 71.542 213.193,71.338 212.979,71.338 213.154 M107.419 216.878 C 105.971 218.490,104.497 220.166,104.144 220.602 L 103.503 221.395 104.166 220.761 C 105.233 219.741,110.365 213.946,110.202 213.946 C 110.120 213.946,108.868 215.265,107.419 216.878 M327.315 215.704 C 326.571 217.266,326.675 217.531,327.454 216.056 C 327.807 215.385,328.040 214.781,327.972 214.713 C 327.903 214.644,327.608 215.090,327.315 215.704 M72.295 215.372 C 72.295 215.547,72.639 216.331,73.059 217.116 C 73.479 217.900,73.822 218.399,73.822 218.225 C 73.822 218.051,73.479 217.266,73.059 216.482 C 72.639 215.697,72.295 215.198,72.295 215.372 M324.789 221.089 C 324.145 222.390,323.687 223.455,323.770 223.455 C 323.982 223.455,326.216 218.979,326.075 218.838 C 326.012 218.774,325.433 219.787,324.789 221.089 M296.515 221.791 C 297.354 222.880,298.099 223.772,298.169 223.772 C 298.392 223.772,296.275 220.944,295.619 220.366 C 295.272 220.060,295.675 220.701,296.515 221.791 M102.955 222.108 C 102.202 222.993,101.052 224.723,101.217 224.723 C 101.299 224.723,101.879 224.010,102.505 223.138 C 103.633 221.568,103.864 221.038,102.955 222.108 M76.862 224.723 C 77.304 225.594,77.737 226.307,77.824 226.307 C 77.911 226.307,77.621 225.594,77.179 224.723 C 76.737 223.851,76.305 223.138,76.218 223.138 C 76.130 223.138,76.420 223.851,76.862 224.723 M322.345 225.674 C 321.990 226.371,321.770 226.941,321.857 226.941 C 321.944 226.941,322.307 226.371,322.662 225.674 C 323.018 224.976,323.238 224.406,323.151 224.406 C 323.064 224.406,322.701 224.976,322.345 225.674 M100.596 225.436 C 99.505 227.287,99.434 227.445,99.990 226.783 C 100.634 226.016,101.189 225.040,100.981 225.040 C 100.898 225.040,100.725 225.218,100.596 225.436 M78.961 228.503 C 79.529 229.536,80.269 230.713,80.605 231.118 L 81.216 231.854 80.749 231.062 C 80.492 230.626,79.820 229.449,79.255 228.447 C 78.690 227.445,78.161 226.624,78.078 226.624 C 77.996 226.624,78.393 227.470,78.961 228.503 M300.634 227.892 C 300.904 228.415,301.197 228.843,301.284 228.843 C 301.371 228.843,301.221 228.415,300.951 227.892 C 300.680 227.369,300.388 226.941,300.301 226.941 C 300.214 226.941,300.363 227.369,300.634 227.892 M320.919 228.209 C 320.649 228.732,320.499 229.160,320.586 229.160 C 320.673 229.160,320.966 228.732,321.236 228.209 C 321.507 227.686,321.657 227.258,321.569 227.258 C 321.482 227.258,321.190 227.686,320.919 228.209 M98.732 228.526 C 98.462 229.049,98.312 229.477,98.399 229.477 C 98.486 229.477,98.779 229.049,99.049 228.526 C 99.320 228.003,99.470 227.575,99.382 227.575 C 99.295 227.575,99.003 228.003,98.732 228.526 M318.980 231.458 C 317.889 233.309,317.818 233.467,318.373 232.805 C 319.017 232.038,319.572 231.062,319.364 231.062 C 319.281 231.062,319.108 231.240,318.980 231.458 M81.417 232.488 C 81.588 232.837,81.961 233.407,82.245 233.756 L 82.761 234.390 82.450 233.756 C 82.278 233.407,81.906 232.837,81.622 232.488 L 81.106 231.854 81.417 232.488 M96.406 233.136 C 95.875 234.301,95.977 234.550,96.551 233.490 C 96.819 232.995,96.979 232.531,96.907 232.459 C 96.834 232.386,96.609 232.691,96.406 233.136 M316.209 235.816 C 315.397 237.036,314.801 238.035,314.883 238.035 C 314.965 238.035,315.583 237.215,316.256 236.212 C 317.748 233.993,317.983 233.597,317.815 233.597 C 317.743 233.597,317.020 234.596,316.209 235.816 M85.905 239.241 C 86.661 240.339,87.429 241.331,87.613 241.445 C 87.988 241.677,85.730 238.454,85.002 237.718 C 84.743 237.456,85.149 238.142,85.905 239.241 M311.599 242.290 C 308.359 246.636,307.132 247.581,307.132 245.729 C 307.132 245.449,307.047 245.304,306.944 245.407 C 306.570 245.781,307.190 246.910,307.770 246.910 C 308.335 246.910,310.634 244.198,313.613 240.016 C 315.870 236.848,314.523 238.369,311.599 242.290 M93.978 240.254 C 93.857 240.801,93.825 241.316,93.906 241.397 C 93.987 241.477,94.144 241.088,94.255 240.531 C 94.519 239.210,94.263 238.954,93.978 240.254 M88.175 242.413 C 91.468 246.979,93.306 248.130,93.165 245.537 C 93.154 245.333,93.016 245.487,92.859 245.880 C 92.358 247.125,91.988 246.888,89.509 243.733 C 88.144 241.995,87.202 241.063,88.175 242.413 " stroke="none" fill="#a1b9cd" fill-rule="evenodd"></path><path id="path3" d="M189.540 19.051 C 116.602 24.796,60.547 85.317,60.547 158.320 C 60.547 189.071,70.832 219.377,89.438 243.452 C 92.289 247.141,92.457 247.106,93.391 242.631 C 98.011 220.497,118.499 201.840,149.602 191.443 C 154.423 189.831,154.230 189.812,156.790 192.158 C 182.047 215.305,217.170 215.474,242.778 192.573 C 245.941 189.744,245.489 189.797,250.937 191.617 C 281.693 201.892,302.421 221.019,306.735 243.105 C 307.499 247.017,307.757 247.057,310.384 243.678 C 345.549 198.437,349.145 135.387,319.370 86.106 C 292.197 41.130,241.520 14.956,189.540 19.051 M211.881 19.664 C 320.300 28.695,376.416 154.579,311.027 242.076 C 308.177 245.890,307.881 246.122,307.590 244.770 C 302.272 220.093,283.303 202.087,251.202 191.245 C 245.632 189.363,245.615 189.365,242.584 192.120 C 217.469 214.953,182.276 214.837,157.110 191.838 C 154.442 189.400,154.291 189.389,148.798 191.245 C 117.949 201.664,97.225 220.758,92.897 242.750 C 92.196 246.310,92.159 246.300,88.668 241.613 C 41.249 177.944,56.419 87.693,122.029 43.136 C 141.941 29.612,165.304 21.373,188.590 19.662 C 191.117 19.476,193.899 19.270,194.770 19.204 C 197.154 19.025,207.561 19.304,211.881 19.664 M193.483 69.267 C 145.921 76.212,128.361 144.047,165.051 179.098 C 200.455 212.921,254.586 183.985,254.616 131.220 C 254.637 93.838,225.743 64.557,193.483 69.267 M208.289 70.034 C 245.280 76.411,265.603 123.499,247.534 160.968 C 231.079 195.092,191.400 203.693,165.363 178.781 C 128.707 143.709,146.143 77.199,193.978 69.625 C 196.560 69.217,204.935 69.456,208.289 70.034 " stroke="none" fill="#83a4bf" fill-rule="evenodd"></path><path id="path4" d="M196.751 18.303 C 198.538 18.359,201.462 18.359,203.249 18.303 C 205.036 18.246,203.574 18.200,200.000 18.200 C 196.426 18.200,194.964 18.246,196.751 18.303 M189.778 18.607 C 190.170 18.683,190.812 18.683,191.204 18.607 C 191.597 18.532,191.276 18.470,190.491 18.470 C 189.707 18.470,189.386 18.532,189.778 18.607 M208.796 18.607 C 209.188 18.683,209.830 18.683,210.222 18.607 C 210.614 18.532,210.293 18.470,209.509 18.470 C 208.724 18.470,208.403 18.532,208.796 18.607 M185.978 18.925 C 186.373 19.000,186.943 18.998,187.246 18.918 C 187.549 18.839,187.227 18.777,186.529 18.780 C 185.832 18.784,185.584 18.849,185.978 18.925 M212.920 18.925 C 213.314 19.000,213.884 18.998,214.188 18.918 C 214.491 18.839,214.168 18.777,213.471 18.780 C 212.773 18.784,212.525 18.849,212.920 18.925 M216.244 19.236 C 216.549 19.316,217.048 19.316,217.353 19.236 C 217.658 19.156,217.409 19.091,216.799 19.091 C 216.189 19.091,215.939 19.156,216.244 19.236 M140.729 31.220 C 139.945 31.640,139.445 31.984,139.620 31.984 C 139.794 31.984,140.578 31.640,141.363 31.220 C 142.147 30.800,142.647 30.457,142.472 30.457 C 142.298 30.457,141.513 30.800,140.729 31.220 M258.320 31.062 C 258.930 31.396,259.572 31.669,259.746 31.669 C 259.921 31.669,259.564 31.396,258.954 31.062 C 258.344 30.728,257.702 30.454,257.528 30.454 C 257.353 30.454,257.710 30.728,258.320 31.062 M133.994 34.570 C 133.340 34.915,132.805 35.268,132.805 35.355 C 132.805 35.441,133.376 35.221,134.073 34.865 C 134.770 34.510,135.341 34.150,135.341 34.066 C 135.341 33.859,135.339 33.860,133.994 34.570 M265.293 34.374 C 265.293 34.461,265.721 34.753,266.244 35.024 C 266.767 35.294,267.195 35.444,267.195 35.357 C 267.195 35.270,266.767 34.977,266.244 34.707 C 265.721 34.436,265.293 34.286,265.293 34.374 M130.824 36.314 C 129.639 36.957,129.711 37.225,130.903 36.609 C 131.426 36.338,131.854 36.049,131.854 35.967 C 131.854 35.763,131.820 35.774,130.824 36.314 M119.968 43.292 L 119.017 44.109 120.048 43.428 C 120.614 43.053,121.078 42.684,121.078 42.609 C 121.078 42.372,120.943 42.455,119.968 43.292 M117.750 44.877 L 116.799 45.694 117.829 45.013 C 118.395 44.638,118.859 44.269,118.859 44.194 C 118.859 43.957,118.725 44.039,117.750 44.877 M289.065 50.160 C 289.065 50.239,290.099 51.214,291.363 52.327 C 292.627 53.440,293.462 54.099,293.219 53.791 C 292.692 53.124,289.065 49.954,289.065 50.160 M107.275 53.328 L 106.022 54.675 107.369 53.422 C 108.110 52.733,108.716 52.127,108.716 52.075 C 108.716 51.835,108.440 52.075,107.275 53.328 M298.732 59.271 C 301.517 62.060,303.867 64.342,303.955 64.342 C 304.042 64.342,301.834 62.060,299.049 59.271 C 296.264 56.482,293.914 54.200,293.827 54.200 C 293.740 54.200,295.947 56.482,298.732 59.271 M100.951 59.271 C 98.340 61.886,96.276 64.025,96.363 64.025 C 96.450 64.025,98.657 61.886,101.268 59.271 C 103.878 56.656,105.943 54.517,105.856 54.517 C 105.769 54.517,103.561 56.656,100.951 59.271 M95.070 65.531 L 93.978 66.719 95.166 65.627 C 95.820 65.026,96.355 64.492,96.355 64.439 C 96.355 64.197,96.087 64.425,95.070 65.531 M304.913 65.769 C 305.504 66.379,306.059 66.878,306.147 66.878 C 306.234 66.878,305.821 66.379,305.230 65.769 C 304.638 65.158,304.083 64.659,303.996 64.659 C 303.909 64.659,304.321 65.158,304.913 65.769 M93.007 67.908 L 92.076 68.938 93.106 68.007 C 94.066 67.140,94.282 66.878,94.037 66.878 C 93.983 66.878,93.519 67.342,93.007 67.908 M307.566 68.872 C 308.415 69.867,309.178 70.681,309.260 70.681 C 309.472 70.681,306.833 67.560,306.390 67.288 C 306.188 67.164,306.717 67.877,307.566 68.872 M195.325 69.949 C 195.630 70.029,196.129 70.029,196.434 69.949 C 196.739 69.869,196.490 69.804,195.880 69.804 C 195.269 69.804,195.020 69.869,195.325 69.949 M203.566 69.949 C 203.871 70.029,204.370 70.029,204.675 69.949 C 204.980 69.869,204.731 69.804,204.120 69.804 C 203.510 69.804,203.261 69.869,203.566 69.949 M87.480 74.802 C 87.108 75.325,86.874 75.753,86.962 75.753 C 87.049 75.753,87.425 75.325,87.797 74.802 C 88.170 74.279,88.403 73.851,88.316 73.851 C 88.229 73.851,87.853 74.279,87.480 74.802 M314.739 78.288 C 315.111 78.811,315.487 79.239,315.574 79.239 C 315.661 79.239,315.428 78.811,315.055 78.288 C 314.683 77.765,314.307 77.338,314.220 77.338 C 314.133 77.338,314.366 77.765,314.739 78.288 M83.425 80.586 C 81.675 83.201,81.204 83.994,81.685 83.518 C 82.190 83.019,85.299 78.288,85.122 78.288 C 85.035 78.288,84.272 79.323,83.425 80.586 M235.341 84.945 C 236.552 86.165,237.614 87.163,237.701 87.163 C 237.788 87.163,236.869 86.165,235.658 84.945 C 234.447 83.724,233.385 82.726,233.298 82.726 C 233.210 82.726,234.130 83.724,235.341 84.945 M164.332 85.024 L 162.441 87.005 164.422 85.113 C 165.511 84.072,166.403 83.181,166.403 83.132 C 166.403 82.898,166.090 83.184,164.332 85.024 M321.553 89.065 C 321.824 89.588,322.116 90.016,322.203 90.016 C 322.290 90.016,322.140 89.588,321.870 89.065 C 321.600 88.542,321.307 88.114,321.220 88.114 C 321.133 88.114,321.283 88.542,321.553 89.065 M77.813 89.699 C 77.543 90.222,77.393 90.650,77.480 90.650 C 77.567 90.650,77.860 90.222,78.130 89.699 C 78.400 89.176,78.550 88.748,78.463 88.748 C 78.376 88.748,78.083 89.176,77.813 89.699 M323.296 92.235 C 323.652 92.932,324.014 93.502,324.102 93.502 C 324.189 93.502,323.969 92.932,323.613 92.235 C 323.258 91.537,322.895 90.967,322.808 90.967 C 322.721 90.967,322.941 91.537,323.296 92.235 M74.785 95.438 C 73.727 97.548,72.912 99.325,72.973 99.386 C 73.034 99.447,73.969 97.720,75.051 95.549 C 76.132 93.377,76.948 91.601,76.863 91.601 C 76.778 91.601,75.843 93.327,74.785 95.438 M326.176 97.781 C 326.176 97.956,326.449 98.597,326.783 99.208 C 327.117 99.818,327.390 100.174,327.390 100.000 C 327.390 99.826,327.117 99.184,326.783 98.574 C 326.449 97.964,326.176 97.607,326.176 97.781 M153.232 100.508 C 152.609 101.746,152.150 102.811,152.214 102.874 C 152.277 102.937,152.855 101.924,153.499 100.623 C 154.143 99.321,154.602 98.257,154.518 98.257 C 154.434 98.257,153.856 99.270,153.232 100.508 M253.672 128.051 C 253.672 129.358,253.728 129.893,253.797 129.239 C 253.865 128.586,253.865 127.516,253.797 126.862 C 253.728 126.208,253.672 126.743,253.672 128.051 M146.245 131.220 C 146.245 133.922,146.293 135.028,146.353 133.677 C 146.412 132.326,146.412 130.115,146.353 128.764 C 146.293 127.413,146.245 128.518,146.245 131.220 M253.672 134.390 C 253.672 135.697,253.728 136.232,253.797 135.578 C 253.865 134.925,253.865 133.855,253.797 133.201 C 253.728 132.548,253.672 133.082,253.672 134.390 M338.901 141.680 C 338.901 142.290,338.966 142.540,339.046 142.235 C 339.125 141.929,339.125 141.430,339.046 141.125 C 338.966 140.820,338.901 141.070,338.901 141.680 M339.231 144.849 C 339.231 145.634,339.292 145.955,339.368 145.563 C 339.443 145.170,339.443 144.529,339.368 144.136 C 339.292 143.744,339.231 144.065,339.231 144.849 M60.625 145.166 C 60.625 145.951,60.687 146.272,60.763 145.880 C 60.838 145.487,60.838 144.845,60.763 144.453 C 60.687 144.061,60.625 144.382,60.625 145.166 M339.548 148.653 C 339.548 149.437,339.609 149.758,339.685 149.366 C 339.760 148.974,339.760 148.332,339.685 147.940 C 339.609 147.548,339.548 147.868,339.548 148.653 M60.308 148.970 C 60.308 149.754,60.370 150.075,60.446 149.683 C 60.521 149.291,60.521 148.649,60.446 148.257 C 60.370 147.865,60.308 148.185,60.308 148.970 M339.913 158.320 C 339.913 162.155,339.959 163.681,340.015 161.710 C 340.071 159.739,340.070 156.601,340.014 154.737 C 339.959 152.872,339.913 154.485,339.913 158.320 M60.037 158.320 C 60.037 161.632,60.084 162.944,60.141 161.236 C 60.199 159.527,60.198 156.817,60.141 155.213 C 60.083 153.610,60.037 155.008,60.037 158.320 M152.139 159.544 C 152.139 159.888,154.031 163.550,154.209 163.550 C 154.296 163.550,153.920 162.658,153.374 161.569 C 152.339 159.504,152.139 159.176,152.139 159.544 M60.308 167.670 C 60.308 168.455,60.370 168.776,60.446 168.384 C 60.521 167.991,60.521 167.349,60.446 166.957 C 60.370 166.565,60.308 166.886,60.308 167.670 M339.548 167.987 C 339.548 168.772,339.609 169.093,339.685 168.700 C 339.760 168.308,339.760 167.666,339.685 167.274 C 339.609 166.882,339.548 167.203,339.548 167.987 M60.625 171.474 C 60.625 172.258,60.687 172.579,60.763 172.187 C 60.838 171.795,60.838 171.153,60.763 170.761 C 60.687 170.368,60.625 170.689,60.625 171.474 M339.231 171.791 C 339.231 172.575,339.292 172.896,339.368 172.504 C 339.443 172.112,339.443 171.470,339.368 171.078 C 339.292 170.685,339.231 171.006,339.231 171.791 M338.901 174.960 C 338.901 175.571,338.966 175.820,339.046 175.515 C 339.125 175.210,339.125 174.711,339.046 174.406 C 338.966 174.101,338.901 174.350,338.901 174.960 M235.332 177.575 L 233.122 179.873 235.420 177.663 C 237.554 175.610,237.863 175.277,237.630 175.277 C 237.582 175.277,236.548 176.311,235.332 177.575 M164.342 177.496 C 165.377 178.542,166.296 179.398,166.383 179.398 C 166.470 179.398,165.694 178.542,164.659 177.496 C 163.624 176.450,162.706 175.594,162.619 175.594 C 162.532 175.594,163.307 176.450,164.342 177.496 M167.036 179.814 C 167.036 179.868,167.500 180.332,168.067 180.844 L 169.097 181.775 168.166 180.745 C 167.298 179.785,167.036 179.569,167.036 179.814 M244.196 191.838 L 243.265 192.868 244.295 191.938 C 244.861 191.426,245.325 190.962,245.325 190.907 C 245.325 190.663,245.063 190.878,244.196 191.838 M195.804 192.617 C 196.198 192.693,196.769 192.690,197.072 192.611 C 197.375 192.531,197.052 192.469,196.355 192.473 C 195.658 192.476,195.410 192.541,195.804 192.617 M203.249 192.612 C 203.554 192.691,204.053 192.691,204.358 192.612 C 204.663 192.532,204.414 192.467,203.803 192.467 C 203.193 192.467,202.944 192.532,203.249 192.612 M157.211 193.126 C 157.211 193.181,157.674 193.644,158.241 194.156 L 159.271 195.087 158.340 194.057 C 157.472 193.097,157.211 192.881,157.211 193.126 M263.074 196.989 C 263.510 197.238,264.010 197.442,264.184 197.442 C 264.358 197.442,264.144 197.238,263.708 196.989 C 263.273 196.740,262.773 196.536,262.599 196.536 C 262.425 196.536,262.639 196.740,263.074 196.989 M129.873 200.181 C 128.688 200.824,128.760 201.092,129.952 200.475 C 130.475 200.205,130.903 199.916,130.903 199.833 C 130.903 199.629,130.869 199.641,129.873 200.181 M206.735 209.727 C 207.040 209.807,207.540 209.807,207.845 209.727 C 208.150 209.647,207.900 209.582,207.290 209.582 C 206.680 209.582,206.430 209.647,206.735 209.727 M195.646 210.053 C 196.128 210.126,196.841 210.124,197.231 210.049 C 197.621 209.974,197.227 209.914,196.355 209.916 C 195.483 209.919,195.164 209.980,195.646 210.053 M202.936 210.053 C 203.418 210.126,204.131 210.124,204.521 210.049 C 204.911 209.974,204.517 209.914,203.645 209.916 C 202.773 209.919,202.454 209.980,202.936 210.053 M286.212 211.193 C 286.212 211.247,286.676 211.711,287.242 212.223 L 288.273 213.154 287.342 212.124 C 286.474 211.163,286.212 210.948,286.212 211.193 M112.341 212.441 L 111.410 213.471 112.441 212.540 C 113.401 211.672,113.616 211.410,113.372 211.410 C 113.317 211.410,112.853 211.874,112.341 212.441 M290.650 215.372 C 291.597 216.331,292.443 217.116,292.530 217.116 C 292.617 217.116,291.914 216.331,290.967 215.372 C 290.020 214.414,289.174 213.629,289.087 213.629 C 288.999 213.629,289.703 214.414,290.650 215.372 M109.033 215.372 C 108.263 216.157,107.705 216.799,107.792 216.799 C 107.879 216.799,108.580 216.157,109.350 215.372 C 110.120 214.588,110.679 213.946,110.592 213.946 C 110.504 213.946,109.803 214.588,109.033 215.372 M326.681 217.606 C 325.937 219.167,326.041 219.433,326.820 217.957 C 327.173 217.287,327.407 216.683,327.338 216.614 C 327.270 216.546,326.974 216.992,326.681 217.606 M72.900 217.226 C 72.900 217.571,76.692 225.040,76.867 225.040 C 77.009 225.040,73.321 217.464,73.023 217.142 C 72.955 217.069,72.900 217.107,72.900 217.226 M106.002 218.780 L 105.071 219.810 106.101 218.879 C 106.668 218.367,107.132 217.903,107.132 217.849 C 107.132 217.604,106.870 217.820,106.002 218.780 M293.185 218.166 C 293.185 218.220,293.649 218.684,294.216 219.196 L 295.246 220.127 294.315 219.097 C 293.447 218.136,293.185 217.921,293.185 218.166 M323.296 224.406 C 322.941 225.103,322.721 225.674,322.808 225.674 C 322.895 225.674,323.258 225.103,323.613 224.406 C 323.969 223.708,324.189 223.138,324.102 223.138 C 324.014 223.138,323.652 223.708,323.296 224.406 M77.813 226.941 C 78.083 227.464,78.376 227.892,78.463 227.892 C 78.550 227.892,78.400 227.464,78.130 226.941 C 77.860 226.418,77.567 225.990,77.480 225.990 C 77.393 225.990,77.543 226.418,77.813 226.941 M321.553 227.575 C 321.283 228.098,321.133 228.526,321.220 228.526 C 321.307 228.526,321.600 228.098,321.870 227.575 C 322.140 227.052,322.290 226.624,322.203 226.624 C 322.116 226.624,321.824 227.052,321.553 227.575 M97.765 230.776 C 97.315 231.665,96.999 232.446,97.064 232.511 C 97.129 232.576,97.565 231.848,98.033 230.894 C 98.501 229.941,98.816 229.160,98.734 229.160 C 98.652 229.160,98.216 229.887,97.765 230.776 M81.626 233.281 C 82.204 234.334,84.974 238.352,85.122 238.352 C 85.299 238.352,82.190 233.622,81.685 233.122 C 81.470 232.909,81.451 232.961,81.626 233.281 M314.739 238.352 C 314.366 238.875,314.133 239.303,314.220 239.303 C 314.307 239.303,314.683 238.875,315.055 238.352 C 315.428 237.829,315.661 237.401,315.574 237.401 C 315.487 237.401,315.111 237.829,314.739 238.352 M87.480 241.838 C 87.853 242.361,88.229 242.789,88.316 242.789 C 88.403 242.789,88.170 242.361,87.797 241.838 C 87.425 241.315,87.049 240.887,86.962 240.887 C 86.874 240.887,87.108 241.315,87.480 241.838 M308.716 246.434 C 308.265 246.978,307.262 247.067,307.023 246.585 C 306.935 246.406,306.898 246.442,306.942 246.664 C 307.075 247.333,308.236 247.298,308.862 246.607 C 309.185 246.250,309.373 245.959,309.280 245.959 C 309.187 245.959,308.933 246.173,308.716 246.434 M91.271 246.687 C 91.748 247.316,92.931 247.301,93.058 246.664 C 93.102 246.442,93.065 246.406,92.977 246.585 C 92.755 247.032,91.820 246.993,91.283 246.513 C 90.903 246.175,90.902 246.200,91.271 246.687 " stroke="none" fill="#bfcfdc" fill-rule="evenodd"></path><path id="path5" d="M187.797 18.267 C 93.496 26.436,33.926 124.919,70.374 212.396 C 76.315 226.654,90.511 249.026,92.757 247.670 C 93.349 247.313,93.422 247.071,94.294 242.524 C 98.302 221.628,119.102 202.653,149.115 192.513 C 154.008 190.860,154.288 190.842,155.487 192.108 C 155.999 192.649,157.845 194.244,159.588 195.652 C 184.772 215.992,218.130 215.328,242.423 194.004 C 246.249 190.645,245.662 190.748,250.885 192.512 C 281.906 202.990,302.246 222.048,306.065 244.216 C 306.948 249.347,307.422 249.223,312.404 242.562 C 349.100 193.500,349.803 126.173,314.139 76.450 C 285.197 36.098,237.188 13.989,187.797 18.267 M210.822 18.553 C 321.948 27.373,378.904 156.699,310.388 244.630 C 308.048 247.633,307.153 247.960,306.749 245.959 C 305.670 240.622,304.694 237.052,303.541 234.223 C 296.248 216.333,277.063 201.008,250.912 192.185 C 245.717 190.432,246.068 190.387,242.841 193.216 C 217.027 215.853,182.625 215.856,157.211 193.226 C 154.033 190.395,154.332 190.434,149.115 192.195 C 118.062 202.684,97.540 221.828,93.687 243.901 C 92.935 248.210,92.533 248.281,89.643 244.612 C 66.889 215.730,56.481 178.116,61.031 141.204 C 70.200 66.803,136.346 12.642,210.822 18.553 M194.770 70.067 C 149.809 76.154,130.366 136.612,161.388 173.869 C 187.049 204.686,232.849 196.021,248.599 157.369 C 250.780 152.018,252.982 143.872,252.903 141.448 C 252.888 140.965,252.673 141.690,252.425 143.059 C 244.973 184.310,204.799 205.083,173.222 184.013 C 139.077 161.228,137.638 104.994,170.567 80.279 C 203.031 55.914,245.982 77.415,252.773 121.431 C 253.191 124.135,253.217 124.204,253.066 122.187 C 250.795 91.980,222.141 66.361,194.770 70.067 M253.351 129.952 C 253.339 133.003,253.222 136.640,253.092 138.035 C 252.961 139.429,252.941 140.490,253.046 140.392 C 253.389 140.070,253.766 130.822,253.568 127.575 C 253.402 124.864,253.371 125.208,253.351 129.952 " stroke="none" fill="#c7d4e4" fill-rule="evenodd"></path><path id="path6" d="M191.204 18.919 C 191.510 18.999,192.009 18.999,192.314 18.919 C 192.619 18.839,192.369 18.774,191.759 18.774 C 191.149 18.774,190.899 18.839,191.204 18.919 M207.686 18.919 C 207.991 18.999,208.490 18.999,208.796 18.919 C 209.101 18.839,208.851 18.774,208.241 18.774 C 207.631 18.774,207.381 18.839,207.686 18.919 M294.453 55.626 C 295.045 56.236,295.600 56.735,295.687 56.735 C 295.774 56.735,295.362 56.236,294.770 55.626 C 294.179 55.016,293.624 54.517,293.537 54.517 C 293.449 54.517,293.862 55.016,294.453 55.626 M104.739 56.181 L 103.487 57.528 104.834 56.275 C 106.086 55.110,106.326 54.834,106.087 54.834 C 106.035 54.834,105.429 55.440,104.739 56.181 M97.606 63.312 L 96.513 64.501 97.702 63.409 C 98.356 62.808,98.891 62.273,98.891 62.220 C 98.891 61.978,98.622 62.206,97.606 63.312 M302.377 63.550 C 302.969 64.160,303.524 64.659,303.611 64.659 C 303.698 64.659,303.286 64.160,302.694 63.550 C 302.103 62.940,301.548 62.441,301.460 62.441 C 301.373 62.441,301.786 62.940,302.377 63.550 M145.874 126.783 C 145.874 127.393,145.939 127.643,146.019 127.338 C 146.099 127.032,146.099 126.533,146.019 126.228 C 145.939 125.923,145.874 126.173,145.874 126.783 M145.874 135.658 C 145.874 136.268,145.939 136.517,146.019 136.212 C 146.099 135.907,146.099 135.408,146.019 135.103 C 145.939 134.798,145.874 135.048,145.874 135.658 M339.218 149.921 C 339.218 150.531,339.283 150.781,339.363 150.475 C 339.442 150.170,339.442 149.671,339.363 149.366 C 339.283 149.061,339.218 149.311,339.218 149.921 M60.612 150.555 C 60.612 151.165,60.678 151.414,60.757 151.109 C 60.837 150.804,60.837 150.305,60.757 150.000 C 60.678 149.695,60.612 149.945,60.612 150.555 M339.570 158.320 C 339.571 159.715,339.627 160.246,339.694 159.500 C 339.761 158.755,339.760 157.614,339.692 156.965 C 339.623 156.316,339.569 156.926,339.570 158.320 M60.612 166.086 C 60.612 166.696,60.678 166.945,60.757 166.640 C 60.837 166.335,60.837 165.836,60.757 165.531 C 60.678 165.226,60.612 165.475,60.612 166.086 M339.218 166.719 C 339.218 167.330,339.283 167.579,339.363 167.274 C 339.442 166.969,339.442 166.470,339.363 166.165 C 339.283 165.860,339.218 166.109,339.218 166.719 M155.309 190.907 C 155.309 190.962,155.773 191.426,156.339 191.938 L 157.369 192.868 156.438 191.838 C 155.571 190.878,155.309 190.663,155.309 190.907 M243.245 192.155 L 242.314 193.185 243.344 192.254 C 243.910 191.742,244.374 191.279,244.374 191.224 C 244.374 190.980,244.112 191.195,243.245 192.155 M198.348 209.744 C 199.445 209.806,201.156 209.805,202.152 209.743 C 203.147 209.680,202.250 209.629,200.158 209.630 C 198.067 209.630,197.252 209.682,198.348 209.744 M111.074 213.074 L 110.143 214.105 111.173 213.174 C 112.133 212.306,112.349 212.044,112.104 212.044 C 112.049 212.044,111.586 212.508,111.074 213.074 " stroke="none" fill="#8ca4c4" fill-rule="evenodd"></path></g></svg>