<svg id="Capa_1" enable-background="new 0 0 512 512" height="512" viewBox="0 0 512 512" width="512" xmlns="http://www.w3.org/2000/svg"><g><path d="m482 170.688v-48.022c0-24.813-20.187-45-45-45h-362c-24.813 0-45 20.187-45 45v48.022c-17.916 10.391-30 29.769-30 51.928 0 21.655 11.702 41.384 30 51.962v134.955h30v24.8h30v-24.8h332v24.8h30v-24.8h30v-134.955c18.298-10.578 30-30.307 30-51.962 0-22.159-12.084-41.537-30-51.928zm-422-48.021c0-8.271 6.729-15 15-15h362c8.271 0 15 6.729 15 15v39.95c-33.084 0-60 26.916-60 60v16.917h-272v-16.917c0-33.084-26.916-60-60-60zm60 146.866h121v30h-121zm151 0h121v30h-121zm191-18.63-10 3.535v125.095h-392v-125.095l-10-3.535c-11.962-4.229-20-15.597-20-28.287 0-16.542 13.458-30 30-30s30 13.458 30 30v106.917h332v-106.917c0-16.542 13.458-30 30-30s30 13.458 30 30c0 12.691-8.037 24.058-20 28.287z"/><path d="m150 137.667h30v30h-30z"/><path d="m332 137.667h30v30h-30z"/></g></svg>